<svg xmlns="http://www.w3.org/2000/svg" viewBox="0 0 64 64"><path d="M54.72 35.415c0-.93.314-1.86.314-3.103s0-2.173-.314-3.103l6.508-5.264c.616-.616.616-1.243.313-1.86l-6.192-10.84c-.314-.314-.93-.616-1.86-.314l-7.738 3.103c-1.545-1.243-3.404-2.173-5.263-3.103L39.244 2.88c.313-.93-.616-1.546-1.244-1.546H25.614c-.616 0-1.545.616-1.545 1.243l-1.244 8.366c-1.86.616-3.405 1.86-5.263 3.103l-7.437-3.103c-.93-.314-1.545 0-2.173.616l-6.18 10.853c-.315.314 0 1.243.615 1.86l6.507 4.95c0 .928-.314 1.858-.314 3.102s0 2.173.315 3.103L2.388 40.69c-.616.617-.616 1.244-.314 1.86l6.193 10.84c.314.315.93.617 1.86.315l7.738-3.103c1.545 1.243 3.405 2.173 5.263 3.103l1.243 8.052c0 .616.617 1.243 1.546 1.243h12.386c.616 0 1.545-.616 1.545-1.243l1.243-8.052c1.86-.93 3.718-1.86 5.263-3.103l7.74 3.103c.615.313 1.544 0 1.858-.616l6.194-10.842c.314-.616.314-1.545-.313-1.86l-7.11-4.973zm-22.914 7.74c-5.88 0-10.84-4.95-10.84-10.842 0-5.89 4.95-10.84 10.84-10.84s10.84 4.95 10.84 10.84-4.95 10.84-10.84 10.84z" fill="#F2F2F2"/></svg>