<?xml version="1.0" encoding="utf-8"?>
<!-- Generator: Adobe Illustrator 18.1.0, SVG Export Plug-In . SVG Version: 6.00 Build 0)  -->
<svg version="1.1" id="Layer_1" xmlns="http://www.w3.org/2000/svg" xmlns:xlink="http://www.w3.org/1999/xlink" x="0px" y="0px"
	 viewBox="-241 333 128 128" enable-background="new -241 333 128 128" xml:space="preserve">
<g id="Layer_21" display="none">
	<rect x="-290" y="564" display="inline" fill="#222222" width="612.1" height="613.2"/>
</g>
<g id="calendar" display="none">
	<path display="inline" fill="#FFFFFF" d="M-86,768.4h81.6v82.8H-86V768.4z M36.4,768.4h81.6v82.8H36.4V768.4L36.4,768.4z
		 M158.8,768.4h81.6v82.8h-81.6V768.4L158.8,768.4z M-208.4,1016.8h81.6v82.7h-81.6V1016.8z M-86,1016.8h81.6v82.7H-86V1016.8z
		 M36.4,1016.8h81.6v82.7H36.4V1016.8L36.4,1016.8z M-86,892.6h81.6v82.8H-86V892.6z M36.4,892.6h81.6v82.8H36.4V892.6L36.4,892.6z
		 M158.8,892.6h81.6v82.8h-81.6V892.6L158.8,892.6z M-208.4,892.6h81.6v82.8h-81.6V892.6z M240.4,564v38.3h-81.6V564h-285.6v38.3
		h-81.5V564H-290v612h612V564H240.4z M281.2,1137.8h-530.5V717h530.4v420.8H281.2z"/>
</g>
<g id="caret" display="none">
	<path display="inline" fill="#FFFFFF" d="M-80.3,1172.4l293.6-293.6c4.7-4.7,4.7-12.9,0-17.7L-80.3,567.6c-2.4-2.4-5.5-3.7-8.8-3.7
		s-6.5,1.3-8.8,3.7l-81,81c-2.4,2.4-3.7,5.6-3.7,8.8c0,3.2,1.2,6.3,3.7,8.8L24.7,870L-179,1073.8c-4.7,4.7-4.7,12.9,0,17.7l81,81
		C-93.1,1177.3-85.2,1177.3-80.3,1172.4z"/>
</g>
<g id="arrow_up" display="none">
	<path display="inline" fill="#FFFFFF" d="M7.2,579.4l-293.6,293.7c-2.4,2.4-3.7,5.5-3.7,8.8s1.3,6.5,3.7,8.8l81,81
		c2.4,2.4,5.6,3.7,8.8,3.7c3.2,0,6.3-1.2,8.8-3.7l133.9-134.1v313.9c0,3.3,1.3,6.5,3.7,8.8s5.5,3.7,8.8,3.7H73.3
		c3.5,0,6.6-1.4,8.8-3.7s3.7-5.4,3.7-8.8V837.7l134.1,134c4.7,4.7,12.9,4.7,17.7,0l81-81c4.9-4.9,4.9-12.8,0-17.7L24.8,579.4
		C20.2,574.8,11.8,574.8,7.2,579.4z"/>
</g>
<g id="arrow_right" display="none">
	<path display="inline" fill="#FFFFFF" d="M306.6,861.2L12.9,567.6c-2.4-2.4-5.5-3.7-8.8-3.7c-3.3,0-6.5,1.3-8.8,3.7l-81,81
		c-2.4,2.4-3.7,5.6-3.7,8.8c0,3.2,1.2,6.3,3.7,8.8L48.3,800.2h-313.9c-3.3,0-6.5,1.3-8.8,3.7c-2.4,2.4-3.7,5.5-3.7,8.8v114.5
		c0,3.5,1.4,6.6,3.7,8.8s5.4,3.7,8.8,3.7H48.3l-134,134c-4.7,4.7-4.7,12.9,0,17.7l81,81c4.9,4.9,12.8,4.9,17.7,0L306.6,879
		C311.2,874.2,311.2,865.8,306.6,861.2z"/>
</g>
<g id="arrow_down">
	<path fill="#FFFFFF" d="M-175.6,428.6l45-45c0.4-0.4,0.6-0.8,0.6-1.4c0-0.5-0.2-1-0.6-1.4l-12.4-12.4c-0.4-0.4-0.9-0.6-1.4-0.6
		c-0.5,0-1,0.2-1.4,0.6l-20.5,20.6v-48.1c0-0.5-0.2-1-0.6-1.4c-0.4-0.4-0.8-0.6-1.4-0.6h-17.6c-0.5,0-1,0.2-1.4,0.6
		c-0.3,0.3-0.6,0.8-0.6,1.4V389l-20.5-20.5c-0.7-0.7-2-0.7-2.7,0l-12.4,12.4c-0.8,0.8-0.8,2,0,2.7l45,45
		C-177.6,429.3-176.4,429.3-175.6,428.6z"/>
</g>
<g id="arrow_left" display="none">
	<path display="inline" fill="#FFFFFF" d="M-274.6,878.8l293.7,293.6c2.4,2.4,5.5,3.7,8.8,3.7s6.5-1.3,8.8-3.7l81-81
		c2.4-2.4,3.7-5.6,3.7-8.8c0-3.2-1.2-6.3-3.7-8.8L-16.3,939.8h313.9c3.3,0,6.5-1.3,8.8-3.7c2.4-2.4,3.7-5.5,3.7-8.8V812.7
		c0-3.5-1.4-6.6-3.7-8.8s-5.4-3.7-8.8-3.7H-16.3l134-134.1c4.7-4.7,4.7-12.9,0-17.7l-81-80.8c-4.9-4.9-12.8-4.9-17.7,0l-293.6,293.6
		C-279.2,865.8-279.2,874.2-274.6,878.8z"/>
</g>
<g id="history" display="none">
	<path display="inline" fill="#FFFFFF" d="M56.8,602.7c-143,0-259.1,114.5-262.6,257.1h-79l118.3,131.8l118.2-131.8h-91.9
		c3.5-106.1,90.2-191.1,197-191.1c108.9,0,197.1,88.6,197.1,197.7s-88.2,197.7-197.1,197.7c-43.6,0-84-14.2-116.7-38.4l-45.2,48.4
		c44.6,35,100.8,55.9,161.8,55.9c145.2,0,262.9-118.1,262.9-263.7C319.6,720.8,202,602.7,56.8,602.7z M33.5,724.9v150.8l96.6,96.6
		l31.8-31.8l-83.4-83.4V724.9H33.5z"/>
</g>
<g id="clokc" display="none">
	<g display="inline">
		<g>
			<path fill="#FFFFFF" d="M15.8,571.8c-164.8,0-298.5,133.6-298.5,298.5c0,164.8,133.6,298.5,298.5,298.5
				c164.8,0,298.5-133.6,298.5-298.5C314.2,705.4,180.6,571.8,15.8,571.8z M15.8,1103.8c-129,0-233.6-104.6-233.6-233.6
				c0-129,104.6-233.6,233.6-233.6c129,0,233.6,104.6,233.6,233.6C249.3,999.2,144.7,1103.8,15.8,1103.8z"/>
			<polygon fill="#FFFFFF" points="38.5,701.6 -6.9,701.6 -6.9,879.7 103.5,990.1 135.6,958 38.5,860.8 			"/>
		</g>
	</g>
</g>
<g id="close" display="none">
	<path display="inline" fill="#FFFFFF" d="M316.4,1055.6L316.4,1055.6L130.8,870l185.6-185.6l0,0c2-2,3.5-4.3,4.4-6.8
		c2.5-6.8,1.1-14.7-4.4-20.2l-87.6-87.7c-5.5-5.5-13.4-6.9-20.2-4.4c-2.5,1-4.8,2.4-6.8,4.4l0,0L16,755.3l-185.6-185.6l0,0
		c-2-2-4.4-3.5-6.8-4.4c-6.8-2.5-14.7-1.1-20.2,4.4l-87.7,87.6c-5.5,5.5-6.9,13.4-4.4,20.2c1,2.5,2.4,4.8,4.4,6.8l0,0L-98.8,870
		l-185.6,185.6l0,0c-2,2-3.5,4.4-4.4,6.8c-2.5,6.8-1.1,14.7,4.4,20.2l87.6,87.7c5.5,5.5,13.4,6.9,20.2,4.4c2.5-1,4.8-2.4,6.8-4.4
		l0,0L16,984.8l185.6,185.6l0,0c2,2,4.3,3.5,6.8,4.4c6.8,2.5,14.7,1.1,20.2-4.4l87.7-87.7c5.5-5.5,6.9-13.4,4.4-20.2
		C319.8,1060.1,318.4,1057.7,316.4,1055.6z"/>
</g>
<g id="edit" display="none">
	<g display="inline">
		<polygon fill="#FFFFFF" points="-288.7,1174.7 -222.2,1166.1 -280.1,1108.2 		"/>
		<polygon fill="#FFFFFF" points="-269.9,1030.1 -276.7,1082.3 -196.3,1162.7 -144.1,1155.8 211.6,800.2 85.8,674.4 		"/>
		<path fill="#FFFFFF" d="M221.4,570.3c-4.2-4.2-9.8-6.3-15.4-6.3c-6,0-12,2.4-16.6,6.9l-85.8,85.8l125.7,125.7l85.8-85.8
			c9.1-9.1,9.3-23.4,0.6-32L221.4,570.3z"/>
	</g>
</g>
<g id="menu" display="none">
	<path display="inline" fill="#FFFFFF" d="M309.4,704.4c6.9,0,12.4-5.6,12.4-12.4V577.9c0-6.6-5.9-12.4-12.4-12.4h-585.1
		c-3.3,0-6.5,1.3-8.8,3.6c-2.3,2.3-3.6,5.5-3.6,8.8V692c0,3.5,1.4,6.6,3.6,8.8c2.2,2.3,5.4,3.6,8.8,3.6H309.4z"/>
	<path display="inline" fill="#FFFFFF" d="M309.4,939.6c6.9,0,12.4-5.6,12.4-12.4V813c0-6.6-5.9-12.4-12.4-12.4h-585.1
		c-3.3,0-6.5,1.3-8.8,3.6c-2.3,2.3-3.6,5.5-3.6,8.8v114.2c0,3.5,1.4,6.6,3.6,8.8c2.3,2.3,5.4,3.6,8.8,3.6H309.4z"/>
	<path display="inline" fill="#FFFFFF" d="M309.4,1176c6.9,0,12.4-5.6,12.4-12.4v-114.2c0-6.6-5.9-12.4-12.4-12.4h-585.1
		c-3.3,0-6.5,1.3-8.8,3.6c-2.3,2.3-3.6,5.5-3.6,8.8v114.2c0,3.5,1.4,6.6,3.6,8.8c2.2,2.3,5.4,3.6,8.8,3.6L309.4,1176L309.4,1176z"/>
</g>
<g id="page" display="none">
	<path display="inline" fill="#FFFFFF" d="M243.1,644.9h-37.9V607c0-20.9-17-37.9-37.9-37.9h-378.4c-20.9,0-37.9,17-37.9,37.9v454.2
		c0,20.9,17,37.9,37.9,37.9h37.9v37.9c0,20.9,17,37.9,37.9,37.9h378.4c20.9,0,37.9-17,37.9-37.9V682.8
		C281,661.9,264,644.9,243.1,644.9z M-42.3,644.9h153c10.4,0,18.9,8.5,18.9,18.9c0,10.4-8.5,18.9-18.9,18.9h-153
		c-10.4,0-18.9-8.5-18.9-18.9C-61.2,653.4-52.9,644.9-42.3,644.9z M-155.9,758.5h266.6c10.4,0,18.9,8.5,18.9,18.9
		c0,10.4-8.5,18.9-18.9,18.9h-266.6c-10.4,0-18.9-8.5-18.9-18.9C-174.9,767-166.4,758.5-155.9,758.5z M-155.9,872h266.6
		c10.4,0,18.9,8.5,18.9,18.9s-8.5,18.9-18.9,18.9h-266.6c-10.4,0-18.9-8.5-18.9-18.9C-174.9,880.5-166.4,872-155.9,872z
		 M-155.9,1023.4c-10.4,0-18.9-8.5-18.9-18.9c0-10.4,8.5-18.9,18.9-18.9h266.6c10.4,0,18.9,8.5,18.9,18.9c0,10.4-8.5,18.9-18.9,18.9
		H-155.9z M243.1,1136.9h-378.6V1099h302.8c20.9,0,37.9-17,37.9-37.9V682.7h37.9L243.1,1136.9L243.1,1136.9z"/>
</g>
<g id="pin" display="none">
	<path display="inline" fill="#FFFFFF" d="M16,564c-114,0-206.6,92.5-206.6,206.5c0,114,206.6,406.6,206.6,406.6
		s206.5-292.6,206.5-406.6C222.5,656.5,130,564,16,564z M16,866.5c-54.5,0-98.6-44.1-98.6-98.6c0-54.5,44.1-98.6,98.6-98.6
		s98.6,44.1,98.6,98.6C114.6,822.4,70.5,866.5,16,866.5z"/>
</g>
<g id="search" display="none">
	<path display="inline" fill="#FFFFFF" d="M305.3,1095L141.5,931.6c1.4-2.2,2.6-5.9,3.7-10.6c17.3-29,28-60.7,31.3-94.2
		c0.7-7.8,1.1-15.8,1.1-23.5c0-25.3-4.2-50.8-12.9-75.8c-11.2-32.5-29.4-61.2-54.1-86.2c-88.3-89.2-236.9-88.9-325,0
		c-29.3,29.6-49.2,64.1-59.6,103.4c-10.5,39.8-10.3,78.8,0,118.2c10.3,39.4,29.9,73.9,59.6,103.4c44.2,44.1,102.3,66.9,162.3,66.9
		c46,0,87.9-13.3,126.6-37.5l5.9-3.7L244.9,1156c6.2,6.2,12.9,9.9,19.1,10.6c1.4,0.4,2.6,0.5,3.7,0.4c4.4-0.2,8.5-1.4,11.8-3.3
		c4.4-2.5,9.2-6.2,14.3-11.4l7.4-7.4c5.1-5.1,8.8-9.9,11.4-14.3c1.9-3.3,3-7.8,3-13.3v-3C315.5,1108.2,311.7,1101.4,305.3,1095z
		 M130.4,852.4c-8.6,32.4-25,60.7-49.4,85c-35.4,35.4-82.8,55.2-133.3,55.2c-49.7,0-96.8-20.2-133.6-55.2
		c-72.2-68.7-72-197.3,0-266.9c36.3-35,83.6-55.6,133.6-55.6c52.6,0,96.6,18.6,133.3,55.6c24,24.1,40.9,52.2,49.4,84.6
		C138.9,787.6,139,820,130.4,852.4z"/>
</g>
<g id="cog" display="none">
	<g id="settings" display="inline">
		<path fill="#FFFFFF" d="M240.2,903.1c0-9.2,3.1-18.4,3.1-30.7c0-12.3,0-21.5-3.1-30.7l64.4-52.1c6.1-6.1,6.1-12.3,3.1-18.4
			l-61.3-107.3c-3.1-3.1-9.2-6.1-18.4-3.1l-76.6,30.7c-15.3-12.3-33.7-21.5-52.1-30.7L87,581c3.1-9.2-6.1-15.3-12.3-15.3H-47.9
			c-6.1,0-15.3,6.1-15.3,12.3l-12.3,82.8c-18.4,6.1-33.7,18.4-52.1,30.7l-73.6-30.7c-9.2-3.1-15.3,0-21.5,6.1L-284,774.4
			c-3.1,3.1,0,12.3,6.1,18.4l64.4,49c0,9.2-3.1,18.4-3.1,30.7c0,12.3,0,21.5,3.1,30.7l-64.4,52.1c-6.1,6.1-6.1,12.3-3.1,18.4
			l61.3,107.3c3.1,3.1,9.2,6.1,18.4,3.1l76.6-30.7c15.3,12.3,33.7,21.5,52.1,30.7l12.3,79.7c0,6.1,6.1,12.3,15.3,12.3H77.7
			c6.1,0,15.3-6.1,15.3-12.3l12.3-79.7c18.4-9.2,36.8-18.4,52.1-30.7l76.6,30.7c6.1,3.1,15.3,0,18.4-6.1l61.3-107.3
			c3.1-6.1,3.1-15.3-3.1-18.4L240.2,903.1z M13.4,979.7c-58.2,0-107.3-49-107.3-107.3s49-107.3,107.3-107.3s107.3,49,107.3,107.3
			S71.7,979.7,13.4,979.7z"/>
	</g>
</g>
<g id="share" display="none">
	<g display="inline">
		<path fill="#FFFFFF" d="M181.6,971.1c-23,0-44.1,7.8-61.1,20.8L-54.2,887.1c0.8-5.4,1.4-10.9,1.4-16.4c0-5.6-0.6-11.1-1.4-16.5
			l174.6-104.8c17,13,38,20.8,61.1,20.8c55.5,0,100.4-44.9,100.4-100.4c0-55.5-44.9-100.4-100.4-100.4S81.1,614.3,81.1,669.8
			c0,5.6,0.6,11.1,1.4,16.4L-92.1,791.1c-17-13-38-20.8-61.1-20.8c-55.5,0-100.4,44.9-100.4,100.4c0,55.5,44.9,100.4,100.4,100.4
			c23.1,0,44.1-7.8,61.1-20.8l174.6,104.8c-0.8,5.4-1.4,10.9-1.4,16.5c0,55.5,44.9,100.4,100.4,100.4S282,1127.1,282,1071.6
			C282,1016.2,237,971.1,181.6,971.1z"/>
	</g>
</g>
<g id="star_empty" display="none">
	<path display="inline" fill="#FFFFFF" d="M315.8,800.6c-1.4-4.4-5.4-7.8-10-8.4l-192.6-27.7L27.2,589.9c-2-4.2-6.3-6.9-11.1-6.9
		s-9,2.6-11.1,6.9l-85.9,174.5l-192.3,27.7c-4.7,0.7-8.5,3.9-10,8.4c-1.4,4.4-0.2,9.4,3.1,12.7l139.5,135.7l-33,191.6
		c-0.8,4.7,1.1,9.3,4.9,12.1c3.8,2.7,8.8,3.1,13,1l172.1-90.7l172.1,90.7c1.8,1,3.8,1.4,5.7,1.4c2.5,0,5.1-0.8,7.3-2.4
		c3.8-2.8,5.7-7.4,4.9-12.1l-33.1-191.6l139.4-135.7C316,810,317.2,805.1,315.8,800.6z M229.1,837.4L129,934.8l23.8,137.7
		c0.6,3.3-0.8,6.7-3.6,8.7c-1.6,1.1-3.3,1.7-5.3,1.7c-1.4,0-2.9-0.4-4.2-1.1l-123.6-65.1l-123.6,65.1c-3,1.6-6.6,1.3-9.3-0.7
		c-2.7-2-4.1-5.4-3.6-8.7l23.8-137.7l-100.2-97.3c-2.4-2.4-3.3-5.9-2.3-9.1c1.1-3.2,3.8-5.6,7.2-6.1l138.3-20L8.1,676.8
		c1.6-3,4.5-4.9,8-4.9s6.5,1.9,8,4.9l61.7,125.4l138.3,20c3.3,0.5,6.1,2.9,7.2,6.1C232.4,831.5,231.5,835,229.1,837.4z"/>
</g>
<g id="star_full" display="none">
	<path display="inline" fill="#FFFFFF" d="M315.8,800.6c-1.4-4.4-5.4-7.8-10-8.4l-192.6-27.7L27.2,589.9c-2-4.2-6.3-6.9-11.1-6.9
		c-4.7,0-9,2.6-11.1,6.9l-85.9,174.5l-192.3,27.7c-4.7,0.7-8.5,3.9-10,8.4c-1.4,4.4-0.2,9.4,3.1,12.7l139.5,135.7l-33,191.6
		c-0.8,4.7,1.1,9.3,4.9,12.1c3.8,2.7,8.8,3.1,13,1l172.1-90.7l172.1,90.7c1.8,1,3.8,1.4,5.7,1.4c2.5,0,5.1-0.8,7.3-2.4
		c3.8-2.8,5.7-7.4,4.9-12.1l-33.1-191.6l139.4-135.7C316,810,317.2,805.1,315.8,800.6z"/>
</g>
<g id="trailer" display="none">
	<path display="inline" fill="#FFFFFF" d="M295.2,594.5H272v46.4h-69.7v-46.4H-169v46.4h-69.7v-46.4h-23.2
		c-12.8,0-23.2,10.4-23.2,23.2v510.6c0,12.8,10.4,23.2,23.2,23.2h23.2v-23.2h69.7v23.2h371.4v-23.2H272v23.2h23.2
		c12.8,0,23.2-10.4,23.2-23.2V617.7C318.4,604.9,308,594.5,295.2,594.5z M-169,1058.7h-69.7v-69.7h69.7
		C-169,989.1-169,1058.7-169,1058.7z M-169,919.5h-69.7v-69.7h69.7C-169,849.8-169,919.5-169,919.5z M-169,780.2h-69.7v-69.7h69.7
		C-169,710.5-169,780.2-169,780.2z M123.1,888.3l-151,88.1c-2.5,1.2-5.1,1.8-7.8,1.8c-3.2,0-6.3-0.8-9.2-2.5
		c-5.1-3.1-8.2-8.6-8.2-14.5V785c0-6,3.1-11.5,8.2-14.6c5.1-3.1,11.6-3.3,17-0.7l151,88c5.9,2.9,9.6,8.7,9.6,15.2
		C132.7,879.6,129,885.4,123.1,888.3z M272,1058.7h-69.7v-69.7H272L272,1058.7L272,1058.7z M272,919.5h-69.7v-69.7H272L272,919.5
		L272,919.5z M272,780.2h-69.7v-69.7H272L272,780.2L272,780.2z"/>
</g>
<g id="trailer_1_" display="none">
	<g display="inline">
		<path fill="#FFFFFF" d="M285.5,738.2v-33c0-12.2-9.8-22-22-22h-494.6c-12.2,0-22,9.8-22,22v33h55v55h-55v55h55v55h-55v55h55v55
			h-55v33c0,12.2,9.8,22,22,22h494.6c12.2,0,22-9.8,22-22v-33h-55v-55h55v-55h-55v-55h55v-55h-55v-55L285.5,738.2L285.5,738.2z
			 M-44.2,958V793.1l137.3,82.5L-44.2,958z"/>
	</g>
	<g display="inline">
		<path fill="#FFFFFF" d="M284.7,700.6v349.7h-536.8V700.6H284.7 M300.2,667.2h-567.9c-9.9,0-17.9,8.1-17.9,17.9v380.8
			c0,9.9,8.1,17.9,17.9,17.9h567.9c9.9,0,17.9-8.1,17.9-17.9V685.1C318.2,675.3,310,667.2,300.2,667.2L300.2,667.2z"/>
	</g>
</g>
<rect x="-235" y="434" fill="#FFFFFF" width="117" height="22"/>
</svg>
