<?xml version="1.0" encoding="utf-8"?>
<!-- Generator: Adobe Illustrator 18.1.0, SVG Export Plug-In . SVG Version: 6.00 Build 0)  -->
<svg version="1.1" id="Layer_1" xmlns="http://www.w3.org/2000/svg" xmlns:xlink="http://www.w3.org/1999/xlink" x="0px" y="0px"
	 viewBox="143 333 128 128" enable-background="new 143 333 128 128" xml:space="preserve">
<g>
	<path fill="#FFFFFF" d="M177.5,345.4h59v14.8h7.4v-14.8c0-4.1-3.3-7.4-7.4-7.4h-59c-4.1,0-7.4,3.3-7.4,7.4v14.8h7.4V345.4z"/>
	<path fill="#FFFFFF" d="M258.6,367.5H155.4c-4.1,0-7.4,3.3-7.4,7.4v36.9c0,4.1,3.3,7.4,7.4,7.4h14.8v29.5c0,4.1,3.3,7.4,7.4,7.4h59
		c4.1,0,7.4-3.3,7.4-7.4v-29.5h14.8c4.1,0,7.4-3.3,7.4-7.4v-36.9C266,370.8,262.7,367.5,258.6,367.5z M236.5,448.6h-59V397h59V448.6
		z M251.3,389.6c-4.1,0-7.4-3.3-7.4-7.4c0-4.1,3.3-7.4,7.4-7.4s7.4,3.3,7.4,7.4C258.6,386.3,255.3,389.6,251.3,389.6z"/>
	<rect x="184.9" y="404.4" fill="#FFFFFF" width="29.5" height="7.4"/>
	<rect x="184.9" y="419.1" fill="#FFFFFF" width="44.3" height="7.4"/>
	<rect x="184.9" y="433.9" fill="#FFFFFF" width="44.3" height="7.4"/>
</g>
</svg>
