<svg xmlns="http://www.w3.org/2000/svg" viewBox="0 0 64 64"><path d="M49.335 45.86h-3.322v-1.92c0-.83.675-1.558 1.557-1.558h.208c.882 0 1.557.675 1.557 1.557v1.92zm-12.352-4.153c-.83 0-1.505.57-1.505 1.246v9.342c0 .675.675 1.246 1.505 1.246.83 0 1.505-.57 1.505-1.245v-9.342c0-.675-.675-1.246-1.505-1.246zm20.085-5.19v17.75c0 4.255-3.685 7.732-8.2 7.732H15.132c-4.515 0-8.2-3.478-8.2-7.734v-17.75c0-4.256 3.685-7.733 8.2-7.733h33.736c4.515-.052 8.2 3.478 8.2 7.733zm-39.704 19.67V37.503h4.204v-2.75h-11.16v2.698h3.478v18.737h3.478zm12.56-15.934h-3.477v9.965c0 1.453.104 2.18 0 2.44-.26.778-1.557 1.608-2.076.103-.103-.26 0-1.09 0-2.438v-10.07h-3.476v9.914c0 1.505-.052 2.647 0 3.166.104.882.052 1.972.882 2.595 1.557 1.142 4.567-.156 5.346-1.765v2.076h2.803V40.253zm11.16 11.47V43.42c0-3.166-2.388-5.086-5.606-2.49v-6.177H32v21.33l2.855-.05.26-1.35c3.684 3.373 5.968 1.037 5.968-2.96zm10.898-1.14h-2.595v1.815c0 .78-.623 1.4-1.453 1.4h-.52c-.778 0-1.452-.622-1.452-1.4v-3.841h5.97v-2.232c0-1.66-.053-3.27-.157-4.256-.415-2.96-4.62-3.478-6.747-1.92-.675.466-1.194 1.09-1.453 1.97-.31.883-.467 2.025-.467 3.53v4.93c.05 8.254 10.068 7.112 8.874.002zm-13.39-26.886c.155.415.466.78.83 1.038.362.26.83.415 1.452.415.52 0 .934-.156 1.35-.415.362-.26.726-.675.985-1.246l-.053 1.348h3.893V8.282h-3.062v12.872c0 .675-.57 1.246-1.298 1.246-.675 0-1.298-.57-1.298-1.246V8.282h-3.218v11.16c0 1.4 0 2.386.052 2.854.054.52.158.934.365 1.4zM26.81 14.355c0-1.61.156-2.803.415-3.737.26-.882.727-1.61 1.453-2.128.675-.52 1.557-.83 2.647-.83.882 0 1.66.156 2.336.52.624.362 1.143.778 1.506 1.348.363.57.57 1.142.727 1.713.156.572.208 1.506.208 2.7v4.204c0 1.557-.05 2.647-.155 3.374-.104.727-.363 1.4-.78 2.024-.362.623-.88 1.09-1.504 1.35-.622.31-1.297.466-2.127.466-.882 0-1.61-.104-2.232-.363s-1.09-.623-1.452-1.142c-.363-.52-.57-1.142-.727-1.868-.155-.727-.207-1.817-.207-3.27l-.103-4.36zm3.01 6.54c0 .933.675 1.712 1.557 1.712.83 0 1.557-.78 1.557-1.713V12.07c0-.933-.675-1.712-1.557-1.712-.83 0-1.557.78-1.557 1.713v8.824zm-10.743 4.463h3.685V12.694l4.36-10.847h-3.996l-2.284 8.045-2.336-8.097H14.51l4.62 10.9-.053 12.663z" fill="#F2F2F2"/></svg>