<?xml version="1.0" encoding="utf-8"?>
<!-- Generator: Adobe Illustrator 18.1.0, SVG Export Plug-In . SVG Version: 6.00 Build 0)  -->
<svg version="1.1" id="Capa_1" xmlns="http://www.w3.org/2000/svg" xmlns:xlink="http://www.w3.org/1999/xlink" x="0px" y="0px"
	 viewBox="242 332 128 128" enable-background="new 242 332 128 128" xml:space="preserve">
<g id="Zoom__x2B_">
	<g>
		<path fill="#FFFFFF" d="M277,396h43.8v-14.8H277V396z M362.4,439.5L341,418.2c5.8-8.4,9.3-18.5,9.3-29.5
			c0-28.5-23.1-51.7-51.7-51.7c-28.5,0-51.7,23.1-51.7,51.7c0,28.5,23.1,51.7,51.7,51.7c11,0,21.1-3.5,29.5-9.3l21.3,21.3
			c3.6,3.6,9.3,3.6,12.8,0S365.9,443,362.4,439.5z M298.7,425.6c-20.4,0-36.9-16.5-36.9-36.9s16.5-36.9,36.9-36.9
			s36.9,16.5,36.9,36.9S319,425.6,298.7,425.6z"/>
	</g>
</g>
</svg>
