<?xml version="1.0" encoding="utf-8"?>
<!-- Generator: Adobe Illustrator 18.1.0, SVG Export Plug-In . SVG Version: 6.00 Build 0)  -->
<svg version="1.1" id="Layer_1" xmlns="http://www.w3.org/2000/svg" xmlns:xlink="http://www.w3.org/1999/xlink" x="0px" y="0px"
	 viewBox="-319 333 128 128" enable-background="new -319 333 128 128" xml:space="preserve">
<g>
	<path fill="#FFFFFF" d="M-202.3,393c0-9.2-7.5-16.6-16.6-16.6c-9.2,0-16.6,7.5-16.6,16.6c0,8.2,6,15,13.8,16.4v17.4
		c0,13.6-11,24.6-24.6,24.6c-13.6,0-24.6-11-24.6-24.6l-0.1-20c6.4-0.9,12.7-4.6,18.4-11.1c0.8-0.9,1.1-2.2,0.9-3.3
		c7.3-9.7,11.9-22.9,11.9-33c0-15.7-7-17.3-18.6-19.9l0,0c-0.7-1.4-2.2-2.5-3.9-2.5c-2.5,0-4.4,2-4.4,4.4c0,2.5,2,4.4,4.4,4.4
		c1,0,1.9-0.4,2.6-1l0.1,0c11.3,2.6,14.3,3.3,14.3,14.5c0,8.9-4.2,20.9-10.7,29.5c-1.1,0.1-2.1,0.5-2.9,1.4
		c-3.3,3.8-8.6,8.4-14.8,8.4c-6.2,0-11.5-4.5-14.8-8.3c-0.8-0.9-1.8-1.3-2.9-1.4c-6.5-8.7-10.7-20.6-10.7-29.5
		c0-11.3,3-11.9,14.3-14.5l0,0c0.8,0.6,1.6,1,2.7,1c2.5,0,4.4-2,4.4-4.4c0-2.4-2-4.4-4.4-4.4c-1.7,0-3.2,1-4,2.5l0,0
		c-11.6,2.7-18.6,4.3-18.6,20c0,10.1,4.6,23.4,11.9,33.1c-0.1,1.2,0.1,2.4,0.9,3.3c5.6,6.4,11.8,10.2,18.3,11l0,20
		c0,16.6,13.6,30.2,30.2,30.2s30.2-13.5,30.2-30.2v-17.4C-208.3,408.1-202.3,401.3-202.3,393z M-218.9,404.1
		c-6.1,0-11.1-5-11.1-11.1c0-6.1,5-11.1,11.1-11.1c6.1,0,11.1,5,11.1,11.1C-207.9,399.2-212.8,404.1-218.9,404.1z"/>
	<path fill="#FFFFFF" d="M-218.9,384.7c-4.6,0-8.3,3.7-8.3,8.3c0,4.6,3.7,8.3,8.3,8.3c4.6,0,8.3-3.7,8.3-8.3
		C-210.6,388.4-214.3,384.7-218.9,384.7z"/>
</g>
</svg>
