<?xml version="1.0" encoding="iso-8859-1"?>
<!-- Generator: Adobe Illustrator 18.1.1, SVG Export Plug-In . SVG Version: 6.00 Build 0)  -->
<svg version="1.1" xmlns="http://www.w3.org/2000/svg" xmlns:xlink="http://www.w3.org/1999/xlink" x="0px" y="0px"
	 viewBox="0 0 64 64" style="enable-background:new 0 0 64 64;" xml:space="preserve">
<g id="download">
	<g id="arrow_down_6_">
		<path style="fill:#F2F2F2;" d="M32.607,48.962l24.079-24.089c0.196-0.196,0.304-0.451,0.304-0.726c0-0.274-0.108-0.53-0.304-0.726
			l-6.647-6.647c-0.196-0.196-0.461-0.304-0.726-0.304c-0.265,0-0.52,0.098-0.726,0.304l-10.981,11V2.029
			c0-0.274-0.108-0.53-0.304-0.726C37.107,1.108,36.853,1,36.578,1h-9.393c-0.284,0-0.54,0.118-0.726,0.304
			c-0.186,0.186-0.304,0.441-0.304,0.726v25.746L15.165,16.785c-0.382-0.382-1.059-0.382-1.451,0l-6.638,6.647
			c-0.402,0.402-0.402,1.049,0,1.451l24.079,24.079C31.539,49.345,32.225,49.345,32.607,48.962z"/>
	</g>
	<path style="fill:#F2F2F2;" d="M61.5,63.209H2.344c-0.825,0-1.5-0.675-1.5-1.5v-7.687c0-0.825,0.675-1.5,1.5-1.5H61.5
		c0.825,0,1.5,0.675,1.5,1.5v7.687C63,62.534,62.325,63.209,61.5,63.209z"/>
</g>
<g id="Layer_1">
</g>
</svg>
