<?xml version="1.0" encoding="iso-8859-1"?>
<!-- Generator: Adobe Illustrator 18.1.1, SVG Export Plug-In . SVG Version: 6.00 Build 0)  -->
<svg version="1.1" xmlns="http://www.w3.org/2000/svg" xmlns:xlink="http://www.w3.org/1999/xlink" x="0px" y="0px"
	 viewBox="0 0 64 64" style="enable-background:new 0 0 64 64;" xml:space="preserve">
<g id="_x2D_play">
	<g>
		<g id="_x33_56._Play">
			<g>
				<path style="fill:#F2F2F2;" d="M58.724,16.415c-8.511-14.741-27.361-19.792-42.1-11.28C1.883,13.645-3.168,32.494,5.344,47.234
					c8.509,14.741,27.359,19.793,42.099,11.281C62.184,50.003,67.237,31.155,58.724,16.415z M44.362,53.175
					c-11.791,6.81-26.872,2.769-33.68-9.024c-6.81-11.791-2.767-26.872,9.024-33.678c11.792-6.81,26.872-2.769,33.68,9.024
					C60.195,31.289,56.153,46.367,44.362,53.175z M43.129,30.572L26.991,21.16c-1.471-0.859-2.657-0.172-2.649,1.529l0.083,18.682
					c0.007,1.701,1.208,2.393,2.683,1.541l16.015-9.246C44.596,32.816,44.599,31.431,43.129,30.572z"/>
			</g>
		</g>
	</g>
</g>
<g id="Layer_1">
</g>
</svg>
