<?xml version="1.0" encoding="iso-8859-1"?>
<!-- Generator: Adobe Illustrator 18.1.1, SVG Export Plug-In . SVG Version: 6.00 Build 0)  -->
<svg version="1.1" xmlns="http://www.w3.org/2000/svg" xmlns:xlink="http://www.w3.org/1999/xlink" x="0px" y="0px"
	 viewBox="0 0 64 64" style="enable-background:new 0 0 64 64;" xml:space="preserve">
<g id="grid">
	<g>
		<path style="fill:#F2F2F2;" d="M18.322,2.992c0-1.065-0.86-1.925-1.925-1.925H3.436c-1.065,0-1.925,0.86-1.925,1.925V15.96
			c0,1.065,0.86,1.925,1.925,1.925h12.968c1.065,0,1.925-0.86,1.925-1.925V2.992H18.322z"/>
		<path style="fill:#F2F2F2;" d="M40.761,2.992c0-1.065-0.86-1.925-1.925-1.925H25.875c-1.065,0-1.925,0.86-1.925,1.925V15.96
			c0,1.065,0.86,1.925,1.925,1.925h12.961c1.065,0,1.925-0.86,1.925-1.925V2.992z"/>
		<path style="fill:#F2F2F2;" d="M63.2,2.992c0-1.065-0.86-1.925-1.925-1.925H48.313c-1.065,0-1.925,0.86-1.925,1.925V15.96
			c0,1.065,0.86,1.925,1.925,1.925h12.968c1.065,0,1.925-0.86,1.925-1.925V2.992H63.2z"/>
		<path style="fill:#F2F2F2;" d="M18.322,25.553c0-1.065-0.86-1.925-1.925-1.925H3.436c-1.065,0-1.925,0.86-1.925,1.925v12.961
			c0,1.065,0.86,1.925,1.925,1.925h12.968c1.065,0,1.925-0.86,1.925-1.925V25.553L18.322,25.553L18.322,25.553z"/>
		<path style="fill:#F2F2F2;" d="M40.761,25.553c0-1.065-0.86-1.925-1.925-1.925H25.875c-1.065,0-1.925,0.86-1.925,1.925v12.961
			c0,1.065,0.86,1.925,1.925,1.925h12.961c1.065,0,1.925-0.86,1.925-1.925V25.553z"/>
		<path style="fill:#F2F2F2;" d="M63.2,25.553c0-1.065-0.86-1.925-1.925-1.925H48.313c-1.065,0-1.925,0.86-1.925,1.925v12.961
			c0,1.065,0.86,1.925,1.925,1.925h12.968c1.065,0,1.925-0.86,1.925-1.925V25.553L63.2,25.553L63.2,25.553z"/>
		<path style="fill:#F2F2F2;" d="M16.397,46.182H3.436c-1.065,0-1.925,0.86-1.925,1.925v12.968C1.511,62.14,2.371,63,3.436,63
			h12.968c1.065,0,1.925-0.86,1.925-1.925V48.107C18.322,47.048,17.463,46.182,16.397,46.182z"/>
		<path style="fill:#F2F2F2;" d="M38.836,46.182H25.875c-1.065,0-1.925,0.86-1.925,1.925v12.968c0,1.065,0.86,1.925,1.925,1.925
			h12.961c1.065,0,1.925-0.86,1.925-1.925V48.107C40.761,47.048,39.901,46.182,38.836,46.182z"/>
		<path style="fill:#F2F2F2;" d="M61.275,46.182H48.313c-1.065,0-1.925,0.86-1.925,1.925v12.968c0,1.065,0.86,1.925,1.925,1.925
			h12.968c1.065,0,1.925-0.86,1.925-1.925V48.107C63.2,47.048,62.34,46.182,61.275,46.182z"/>
	</g>
</g>
<g id="Layer_1">
</g>
</svg>
