<svg xmlns="http://www.w3.org/2000/svg" viewBox="0 0 64 64"><g fill="#F2F2F2"><path d="M50.673 9.247H46.61c-.58 0-1.05-.47-1.05-1.05V6.364c0-2.892-2.35-5.244-5.244-5.244H24.06c-2.893 0-5.245 2.352-5.245 5.243v1.835c0 .58-.47 1.05-1.05 1.05h-4.063c-2.896 0-5.244 2.346-5.244 5.243v4.983c0 .58.47 1.05 1.05 1.05h45.36c.582 0 1.05-.47 1.05-1.05V14.49c0-2.895-2.347-5.243-5.245-5.243zm-9.308-1.05c0 .58-.468 1.05-1.05 1.05H24.06c-.58 0-1.05-.47-1.05-1.05V6.364c0-.58.47-1.05 1.05-1.05h16.256c.58 0 1.05.47 1.05 1.05v1.835zM50.413 23.144H13.966c-.58 0-1.05.47-1.05 1.05v33.562c0 2.897 2.35 5.244 5.245 5.244h28.057c2.897 0 5.244-2.347 5.244-5.244V24.193c.002-.58-.467-1.05-1.047-1.05zM23.667 55.658c0 1.158-.94 2.098-2.098 2.098-1.16 0-2.1-.94-2.1-2.098V29.7c0-1.158.94-2.098 2.1-2.098 1.158 0 2.097.94 2.097 2.098v25.958zm10.62 0c0 1.158-.94 2.098-2.1 2.098-1.157 0-2.097-.94-2.097-2.098V29.7c0-1.158.94-2.098 2.098-2.098 1.16 0 2.098.94 2.098 2.098v25.958zm10.618 0c0 1.158-.94 2.098-2.098 2.098s-2.098-.94-2.098-2.098V29.7c0-1.158.94-2.098 2.097-2.098s2.098.94 2.098 2.098v25.958z"/></g></svg>