<svg xmlns="http://www.w3.org/2000/svg" viewBox="0 0 64 64"><g fill="#F2F2F2"><path d="M22.333 24.475h7.5v7.5h-7.5zM33.583 24.475h7.5v7.5h-7.5zM44.883 24.475h7.5v7.5h-7.5zM11.083 35.725h7.5v7.5h-7.5zM22.333 35.725h7.5v7.5h-7.5zM33.583 35.725h7.5v7.5h-7.5zM44.883 35.725h7.5v7.5h-7.5zM11.083 46.975h7.5v7.5h-7.5zM22.333 46.975h7.5v7.5h-7.5zM33.583 46.975h7.5v7.5h-7.5z"/><path d="M52.383 9.475v-5.65c0-1-.85-1.85-1.85-1.85h-7.5c-1 0-1.85.85-1.85 1.85v5.65h-18.85v-5.65c0-1-.85-1.85-1.85-1.85h-7.5c-1 0-1.85.85-1.85 1.85v5.65h-7.45v52.55h56.35V9.475h-7.65zm-7.5-3.8h3.75v7.5h-3.75v-7.5zm-30.05 0h3.75v7.5h-3.75v-7.5zm41.3 52.6h-48.8v-37.55h48.8v37.55z"/></g></svg>