<svg xmlns="http://www.w3.org/2000/svg" viewBox="0 0 64 64"><path d="M61.888 55.442l-16.98-16.927c.156-.207.26-.62.363-1.087 1.813-3.002 2.9-6.264 3.262-9.732.052-.828.104-1.656.104-2.433 0-2.64-.414-5.28-1.346-7.868-1.14-3.365-3.054-6.315-5.59-8.904C32.536-.722 17.16-.722 8.05 8.49c-3.054 3.055-5.125 6.627-6.16 10.716-1.087 4.14-1.087 8.18 0 12.268s3.106 7.66 6.16 10.715c4.555 4.554 10.612 6.936 16.824 6.936 4.762 0 9.11-1.398 13.097-3.882l.62-.362 17.032 16.98c.62.62 1.346 1.034 1.967 1.086.155.052.258.052.362.052.466 0 .88-.155 1.242-.362.466-.26.932-.62 1.5-1.19l.777-.777c.518-.517.932-1.034 1.19-1.5.208-.362.312-.828.312-1.398v-.31c0-.674-.414-1.347-1.087-2.02zM43.77 30.284c-.88 3.365-2.588 6.264-5.125 8.8-3.675 3.675-8.593 5.694-13.82 5.694-5.126 0-10.043-2.07-13.822-5.694-7.454-7.144-7.454-20.447 0-27.643 3.78-3.623 8.645-5.745 13.82-5.745 5.436 0 9.992 1.915 13.822 5.746 2.485 2.486 4.245 5.436 5.125 8.75.88 3.417.88 6.78 0 10.094z" fill="#F2F2F2"/></svg>