<?xml version="1.0" encoding="utf-8"?>
<!-- Generator: Adobe Illustrator 16.0.3, SVG Export Plug-In . SVG Version: 6.00 Build 0)  -->
<!DOCTYPE svg PUBLIC "-//W3C//DTD SVG 1.1//EN" "http://www.w3.org/Graphics/SVG/1.1/DTD/svg11.dtd">
<svg version="1.1" id="Layer_1" xmlns="http://www.w3.org/2000/svg" xmlns:xlink="http://www.w3.org/1999/xlink" x="0px" y="0px"
	 width="128px" height="128px" viewBox="242 197.25 128 128" enable-background="new 242 197.25 128 128" xml:space="preserve">
<g id="Layer_21" display="none">
	<rect x="-49" y="231" display="inline" fill="#222222" width="612.119" height="613.195"/>
</g>
<g id="arrow_up" display="none">
	<path display="inline" fill="#FFFFFF" d="M248.155,246.419L-45.414,540.107c-2.391,2.391-3.706,5.499-3.706,8.846
		s1.315,6.455,3.706,8.846l81.042,81.042c2.391,2.392,5.618,3.705,8.846,3.705c3.227,0,6.335-1.195,8.845-3.705l133.875-134.114
		v313.89c0,3.348,1.315,6.455,3.706,8.846s5.498,3.705,8.845,3.705h114.511c3.466,0,6.574-1.434,8.845-3.705
		c2.271-2.271,3.706-5.379,3.706-8.846v-313.89L460.92,638.721c4.662,4.662,12.91,4.662,17.691,0l81.042-81.042
		c4.899-4.899,4.899-12.79,0-17.689l-293.808-293.57C261.184,241.758,252.816,241.758,248.155,246.419z"/>
</g>
<g id="arrow_right" display="none">
	<path display="inline" fill="#FFFFFF" d="M547.58,528.154L253.892,234.586c-2.391-2.391-5.499-3.706-8.845-3.706
		c-3.346,0-6.455,1.315-8.845,3.706l-81.042,81.042c-2.391,2.392-3.705,5.618-3.705,8.847c0,3.227,1.195,6.334,3.705,8.844
		l134.114,133.876h-313.89c-3.347,0-6.455,1.314-8.845,3.706c-2.39,2.391-3.706,5.498-3.706,8.845v114.512
		c0,3.466,1.435,6.574,3.706,8.845c2.271,2.271,5.379,3.706,8.845,3.706h313.889L155.279,740.801c-4.662,4.662-4.662,12.909,0,17.69
		l81.042,81.042c4.9,4.9,12.79,4.9,17.69,0L547.58,545.965C552.242,541.184,552.242,532.816,547.58,528.154z"/>
</g>
<g id="arrow_down" display="none">
	<path display="inline" fill="#FFFFFF" d="M265.845,827.58l293.569-293.688c2.391-2.391,3.705-5.499,3.705-8.846
		s-1.314-6.455-3.705-8.846l-81.042-81.042c-2.391-2.392-5.618-3.705-8.846-3.705c-3.229,0-6.335,1.195-8.846,3.705L326.807,569.273
		v-313.89c0-3.347-1.314-6.455-3.706-8.845c-2.391-2.39-5.497-3.706-8.845-3.706H199.745c-3.466,0-6.574,1.435-8.845,3.706
		s-3.706,5.379-3.706,8.845v313.89L53.199,435.279c-4.662-4.662-12.909-4.662-17.69,0l-80.923,81.042
		c-4.901,4.899-4.901,12.79,0,17.689L248.155,827.58C252.816,832.242,261.184,832.242,265.845,827.58z"/>
</g>
<g id="arrow_left" display="none">
	<path display="inline" fill="#FFFFFF" d="M-33.581,545.846l293.688,293.568c2.391,2.391,5.499,3.705,8.845,3.705
		c3.346,0,6.455-1.314,8.845-3.705l81.042-81.042c2.392-2.391,3.705-5.618,3.705-8.846c0-3.229-1.195-6.335-3.705-8.846
		L224.727,606.807h313.889c3.348,0,6.455-1.314,8.846-3.706c2.392-2.391,3.705-5.498,3.705-8.845V479.744
		c0-3.466-1.434-6.574-3.705-8.845c-2.271-2.271-5.379-3.706-8.846-3.706H224.727L358.721,333.08c4.662-4.662,4.662-12.909,0-17.689
		l-81.042-80.804c-4.9-4.901-12.79-4.901-17.69,0l-293.57,293.567C-38.242,532.816-38.242,541.184-33.581,545.846z"/>
</g>
<g id="calendar" display="none">
	<path display="inline" fill="#FFFFFF" d="M155.04,435.398h81.64v82.835h-81.64V435.398z M277.44,435.398h81.64v82.835h-81.64
		V435.398L277.44,435.398z M399.84,435.398h81.641v82.835H399.84V435.398L399.84,435.398z M32.64,683.784h81.64V766.5H32.64V683.784
		z M155.04,683.784h81.64V766.5h-81.64V683.784z M277.44,683.784h81.64V766.5h-81.64V683.784L277.44,683.784z M155.04,559.592h81.64
		v82.835h-81.64V559.592z M277.44,559.592h81.64v82.835h-81.64V559.592L277.44,559.592z M399.84,559.592h81.641v82.835H399.84
		V559.592L399.84,559.592z M32.64,559.592h81.64v82.835H32.64V559.592z M481.36,231v38.25H399.72V231H114.16v38.25H32.64V231H-49
		v612h612V231H481.36z M522.24,804.75H-8.24V384h530.36v420.75H522.24z"/>
</g>
<g id="caret" display="none">
	<path display="inline" fill="#FFFFFF" d="M160.658,839.414l293.568-293.568c4.662-4.662,4.662-12.909,0-17.69L160.658,234.586
		c-2.391-2.391-5.499-3.706-8.845-3.706s-6.455,1.315-8.845,3.706l-81.042,81.042c-2.391,2.392-3.705,5.618-3.705,8.847
		c0,3.227,1.195,6.334,3.705,8.844L265.726,537L62.044,740.801c-4.662,4.662-4.662,12.909,0,17.69l81.042,81.042
		C147.868,844.314,155.757,844.314,160.658,839.414z"/>
</g>
<g id="clock" display="none">
	<g display="inline">
		<g>
			<path fill="#FFFFFF" d="M256.761,238.77c-164.833,0-298.469,133.636-298.469,298.47c0,164.833,133.636,298.47,298.469,298.47
				c164.834,0,298.47-133.637,298.47-298.47C555.23,372.404,421.595,238.77,256.761,238.77z M256.761,770.803
				c-128.974,0-233.564-104.59-233.564-233.563c0-128.975,104.59-233.564,233.564-233.564c128.976,0,233.564,104.59,233.564,233.564
				C490.325,666.213,385.735,770.803,256.761,770.803z"/>
			<polygon fill="#FFFFFF" points="279.472,368.581 234.05,368.581 234.05,546.682 344.497,657.129 376.65,624.975 279.472,527.796 
							"/>
		</g>
	</g>
</g>
<g id="close" display="none">
	<path display="inline" fill="#FFFFFF" d="M557.382,722.632L557.382,722.632L371.75,537l185.632-185.632l0,0
		c2.032-2.032,3.467-4.304,4.423-6.813c2.511-6.813,1.076-14.701-4.423-20.201l-87.616-87.735c-5.498-5.499-13.388-6.933-20.2-4.423
		c-2.511,0.956-4.781,2.391-6.813,4.423l0,0L257,422.25L71.368,236.618l0,0c-2.032-2.032-4.423-3.467-6.813-4.423
		c-6.813-2.51-14.702-1.076-20.201,4.423l-87.736,87.616c-5.499,5.498-6.933,13.388-4.423,20.201c0.956,2.51,2.391,4.78,4.423,6.813
		l0,0L142.25,537L-43.382,722.632l0,0c-2.032,2.032-3.467,4.423-4.423,6.813c-2.51,6.813-1.076,14.702,4.423,20.2l87.616,87.735
		c5.499,5.499,13.388,6.933,20.201,4.423c2.51-0.956,4.781-2.391,6.813-4.423l0,0L257,651.75l185.632,185.632l0,0
		c2.032,2.032,4.304,3.467,6.813,4.423c6.813,2.511,14.702,1.076,20.201-4.423l87.734-87.734c5.499-5.499,6.934-13.389,4.423-20.201
		C560.849,727.055,559.414,724.664,557.382,722.632z"/>
</g>
<g id="edit" display="none">
	<g display="inline">
		<polygon fill="#FFFFFF" points="-47.685,841.686 18.774,833.079 -39.079,775.226 		"/>
		<polygon fill="#FFFFFF" points="-28.919,697.053 -35.732,749.287 44.712,829.732 96.948,822.799 452.553,467.193 326.807,341.447 
					"/>
		<path fill="#FFFFFF" d="M462.354,237.335c-4.184-4.184-9.802-6.335-15.419-6.335c-5.977,0-11.952,2.391-16.614,6.933
			l-85.823,85.824l125.747,125.747l85.823-85.822c9.084-9.084,9.322-23.429,0.598-32.035L462.354,237.335z"/>
	</g>
</g>
<g id="email" display="none">
	<path display="inline" fill="#FFFFFF" d="M257,250.364L-39.796,472.094v352.497h593.712V472.095L257,250.364z M174.882,408.504
		c8.726-15.896,20.679-27.852,35.979-35.859c15.181-8.009,32.513-12.072,52.116-12.072c16.495,0,31.317,3.228,44.227,9.682
		s22.711,15.659,29.523,27.492c6.813,11.953,10.16,24.862,10.16,38.967c0,16.734-5.14,31.915-15.539,45.542
		c-13.028,17.093-29.523,25.699-49.845,25.699c-5.499,0-9.563-0.956-12.312-2.869c-2.75-1.912-4.662-4.661-5.499-8.486
		c-7.65,7.53-16.615,11.355-26.775,11.355c-10.877,0-19.962-3.825-27.134-11.236c-7.172-7.529-10.758-17.57-10.758-30.122
		c0-15.539,4.303-29.644,13.029-42.313c10.519-15.539,24.026-23.309,40.521-23.309c11.714,0,20.44,4.422,25.938,13.506l2.51-10.996
		h26.058l-14.822,70.763c-0.956,4.542-1.435,7.411-1.435,8.726c0,1.675,0.359,2.869,1.076,3.706
		c0.717,0.836,1.673,1.195,2.749,1.195c3.228,0,7.292-1.913,12.312-5.738c6.694-4.899,12.192-11.714,16.257-20.081
		c4.185-8.485,6.215-17.212,6.215-26.177c0-16.137-5.855-29.646-17.569-40.641c-11.715-10.759-28.09-16.257-49.128-16.257
		c-17.81,0-32.99,3.586-45.302,10.998c-12.431,7.172-21.754,17.451-28.09,30.72c-6.215,13.147-9.323,26.895-9.323,41.238
		c0,13.864,3.586,26.535,10.519,37.892c7.053,11.475,16.854,19.723,29.524,24.981c12.67,5.14,27.134,7.77,43.509,7.77
		c15.659,0,29.166-2.151,40.521-6.574c11.355-4.423,20.439-10.877,27.372-19.723h20.918c-6.574,13.388-16.614,23.787-30.241,31.437
		c-15.657,8.728-34.664,13.029-57.016,13.029c-21.755,0-40.521-3.586-56.299-10.997c-15.778-7.411-27.492-18.169-35.262-32.513
		c-7.65-14.344-11.475-29.883-11.475-46.736C161.853,441.854,166.156,424.521,174.882,408.504z M-18.878,479.027l218.981,146.903
		L-18.878,795.427V479.027z M-2.263,806.782L257,606.089l259.264,200.693H-2.263L-2.263,806.782z M532.878,795.427L313.896,625.932
		l218.98-146.903L532.878,795.427L532.878,795.427z M267.758,424.76c3.466,3.945,5.259,9.684,5.259,17.095
		c0,6.692-1.315,13.864-3.825,21.516c-2.51,7.77-5.499,13.626-8.965,17.57c-2.391,2.868-4.901,4.9-7.411,6.216
		c-3.228,1.913-6.813,2.749-10.519,2.749c-5.021,0-9.204-2.031-12.67-5.978c-3.347-3.943-5.021-10.04-5.021-18.407
		c0-6.216,1.195-13.507,3.586-21.516c2.51-8.128,6.096-14.344,10.877-18.767c4.781-4.424,10.041-6.574,15.659-6.574
		C259.869,418.664,264.292,420.695,267.758,424.76z"/>
</g>
<g id="facebook" display="none">
	<path display="inline" fill="#FFFFFF" d="M289.513,434.92l0.119-51.518c0-26.775,1.793-41.238,40.282-41.238h71.121V239.367
		h-101.96c-98.853,0-121.563,51.04-121.563,135.07l0.12,60.603h-75.066v102.916h75.066v298.589h111.881l0.119-298.589h101.603
		l10.878-102.916H289.513V434.92z"/>
</g>
<g id="history" display="none">
	<path display="inline" fill="#FFFFFF" d="M297.76,269.729c-142.959,0-259.144,114.511-262.61,257.111h-79.01L74.476,658.683
		L192.692,526.84h-91.92c3.467-106.144,90.246-191.13,196.987-191.13c108.895,0,197.107,88.573,197.107,197.705
		S406.653,731.119,297.76,731.119c-43.628,0-84.03-14.226-116.662-38.37l-45.183,48.41C180.5,776.182,236.68,797.1,297.76,797.1
		c145.23,0,262.851-118.097,262.851-263.686C560.61,387.824,442.99,269.729,297.76,269.729z M274.452,391.889v150.849l96.582,96.581
		l31.795-31.795l-83.433-83.434V391.889H274.452z"/>
</g>
<g id="menu" display="none">
	<path display="inline" fill="#FFFFFF" d="M550.449,371.449c6.933,0,12.432-5.618,12.432-12.432V244.866
		c0-6.574-5.856-12.431-12.432-12.431H-34.656c-3.347,0-6.455,1.314-8.845,3.586c-2.271,2.271-3.586,5.498-3.586,8.845v114.151
		c0,3.467,1.434,6.574,3.586,8.846c2.151,2.271,5.379,3.586,8.845,3.586H550.449z"/>
	<path display="inline" fill="#FFFFFF" d="M550.449,606.567c6.933,0,12.432-5.618,12.432-12.433V479.983
		c0-6.574-5.856-12.432-12.432-12.432H-34.656c-3.347,0-6.455,1.314-8.845,3.586c-2.271,2.271-3.586,5.498-3.586,8.846v114.151
		c0,3.467,1.434,6.574,3.586,8.847c2.271,2.271,5.379,3.586,8.845,3.586H550.449z"/>
	<path display="inline" fill="#FFFFFF" d="M550.449,843c6.933,0,12.432-5.618,12.432-12.432V716.416
		c0-6.574-5.856-12.431-12.432-12.431H-34.656c-3.347,0-6.455,1.313-8.845,3.586c-2.271,2.271-3.586,5.498-3.586,8.845v114.152
		c0,3.467,1.434,6.573,3.586,8.846c2.151,2.271,5.379,3.586,8.845,3.586H550.449L550.449,843z"/>
</g>
<g id="page" display="none">
	<path display="inline" fill="#FFFFFF" d="M484.109,311.923h-37.893v-37.892c0-20.918-16.974-37.892-37.892-37.892H29.891
		c-20.918,0-37.892,16.974-37.892,37.892V728.25c0,20.918,16.974,37.892,37.892,37.892h37.892v37.893
		c0,20.918,16.973,37.891,37.891,37.891H484.11c20.918,0,37.892-16.973,37.892-37.891v-454.22
		C522.001,328.896,505.027,311.923,484.109,311.923z M198.669,311.923h153c10.399,0,18.886,8.486,18.886,18.886
		c0,10.4-8.485,18.887-18.886,18.887h-153c-10.399,0-18.886-8.486-18.886-18.887C179.783,320.409,188.15,311.923,198.669,311.923z
		 M85.114,425.478h266.555c10.399,0,18.886,8.486,18.886,18.887c0,10.399-8.485,18.886-18.886,18.886H85.114
		c-10.399,0-18.886-8.486-18.886-18.886C66.108,433.964,74.595,425.478,85.114,425.478z M85.114,539.032h266.555
		c10.399,0,18.886,8.485,18.886,18.886s-8.485,18.886-18.886,18.886H85.114c-10.399,0-18.886-8.485-18.886-18.886
		C66.108,547.519,74.595,539.032,85.114,539.032z M85.114,690.358c-10.399,0-18.886-8.486-18.886-18.887
		c0-10.399,8.487-18.886,18.886-18.886h266.555c10.399,0,18.886,8.486,18.886,18.886c0,10.4-8.485,18.887-18.886,18.887H85.114z
		 M484.109,803.913H105.554v-37.893h302.772c20.918,0,37.892-16.973,37.892-37.891V349.693h37.893L484.109,803.913L484.109,803.913z
		"/>
</g>
<g id="pin" display="none">
	<path display="inline" fill="#FFFFFF" d="M257,231c-114.033,0-206.55,92.518-206.55,206.55C50.45,551.583,257,844.195,257,844.195
		S463.55,551.583,463.55,437.55C463.55,323.518,371.033,231,257,231z M257,533.533c-54.506,0-98.613-44.106-98.613-98.613
		c0-54.506,44.107-98.613,98.613-98.613s98.613,44.107,98.613,98.613C355.613,489.427,311.506,533.533,257,533.533z"/>
</g>
<g id="search" display="none">
	<path display="inline" fill="#FFFFFF" d="M546.266,761.958L382.508,598.559c1.436-2.15,2.63-5.856,3.705-10.639
		c17.332-29.046,27.971-60.722,31.317-94.189c0.718-7.771,1.075-15.778,1.075-23.549c0-25.34-4.184-50.801-12.908-75.781
		c-11.236-32.514-29.405-61.2-54.148-86.183c-88.333-89.17-236.911-88.931-325.005,0c-29.285,29.644-49.247,64.069-59.646,103.394
		c-10.519,39.806-10.279,78.771,0,118.218c10.28,39.445,29.883,73.87,59.646,103.395c44.227,44.107,102.318,66.938,162.323,66.938
		c46.02,0,87.855-13.269,126.584-37.533l5.855-3.705L485.902,823.04c6.216,6.216,12.908,9.921,19.125,10.639
		c1.435,0.358,2.63,0.479,3.705,0.358c4.423-0.239,8.486-1.436,11.834-3.348c4.423-2.511,9.203-6.216,14.344-11.354l7.411-7.411
		c5.14-5.14,8.845-9.921,11.354-14.344c1.912-3.347,2.988-7.771,2.988-13.269v-2.987
		C556.545,775.226,552.721,768.412,546.266,761.958z M371.392,519.429c-8.605,32.395-24.981,60.723-49.365,84.987
		c-35.382,35.381-82.835,55.223-133.278,55.223c-49.725,0-96.82-20.199-133.636-55.223c-72.197-68.729-71.958-197.348,0-266.914
		c36.337-35.023,83.552-55.582,133.636-55.582c52.594,0,96.582,18.646,133.278,55.582c24.024,24.145,40.879,52.234,49.365,84.628
		C379.878,454.643,379.998,487.036,371.392,519.429z"/>
</g>
<g id="settings_1_" display="none">
	<g id="settings" display="inline">
		<path fill="#FFFFFF" d="M481.24,570.11c0-9.204,3.107-18.408,3.107-30.721c0-12.312,0-21.516-3.107-30.72l64.428-52.115
			c6.096-6.097,6.096-12.312,3.107-18.407l-61.319-107.339c-3.107-3.108-9.204-6.097-18.407-3.108l-76.62,30.72
			c-15.3-12.313-33.708-21.516-52.114-30.72l-12.313-79.727c3.107-9.204-6.097-15.3-12.313-15.3H193.051
			c-6.096,0-15.3,6.096-15.3,12.312l-12.312,82.835c-18.408,6.096-33.708,18.408-52.116,30.72l-73.631-30.72
			c-9.204-3.108-15.3,0-21.516,6.096l-61.2,107.458c-3.108,3.107,0,12.313,6.096,18.408L27.5,508.791
			c0,9.203-3.108,18.407-3.108,30.719c0,12.313,0,21.517,3.108,30.72l-64.427,52.116c-6.096,6.097-6.096,12.313-3.108,18.407
			l61.319,107.339c3.108,3.108,9.204,6.097,18.408,3.108l76.619-30.721c15.3,12.313,33.708,21.517,52.116,30.721l12.312,79.728
			c0,6.097,6.096,12.313,15.3,12.313h122.639c6.098,0,15.301-6.098,15.301-12.313L346.29,751.2
			c18.407-9.204,36.815-18.408,52.115-30.72l76.62,30.72c6.096,3.106,15.3,0,18.406-6.098l61.319-107.339
			c3.108-6.096,3.108-15.3-3.107-18.406L481.24,570.11z M254.37,646.729c-58.211,0-107.339-49.009-107.339-107.34
			s49.008-107.339,107.339-107.339s107.339,49.008,107.339,107.339S312.701,646.729,254.37,646.729z"/>
	</g>
</g>
<g id="share" display="none">
	<g display="inline">
		<path fill="#FFFFFF" d="M422.551,638.123c-22.95,0-44.106,7.77-61.08,20.799L186.835,554.093
			c0.837-5.379,1.435-10.877,1.435-16.376c0-5.617-0.598-11.116-1.435-16.495l174.636-104.829c16.974,13.029,38.012,20.8,61.08,20.8
			c55.463,0,100.406-44.944,100.406-100.406S478.014,236.38,422.551,236.38s-100.406,44.944-100.406,100.406
			c0,5.618,0.599,11.116,1.436,16.376L148.944,458.109c-16.974-13.029-38.011-20.8-61.081-20.8
			c-55.462,0-100.406,44.944-100.406,100.406c0,55.463,44.944,100.406,100.406,100.406c23.069,0,44.107-7.771,61.081-20.798
			l174.635,104.829c-0.837,5.379-1.436,10.877-1.436,16.495c0,55.462,44.943,100.405,100.406,100.405
			s100.406-44.943,100.406-100.405C522.957,683.187,478.014,638.123,422.551,638.123z"/>
	</g>
</g>
<g id="SMS" display="none">
	<g display="inline">
		<path fill="#FFFFFF" d="M554.872,588.279c0-52.953-29.524-100.168-75.783-131.725c3.229,14.702,5.141,29.764,5.141,45.303
			c0,119.65-101.603,219.46-235.356,240.854c28.329,11.477,60.005,18.05,93.712,18.05c31.796,0,61.918-5.856,89.051-16.137
			c34.427,11.714,71.839,14.702,102.917,14.702c-16.137-19.364-27.373-38.369-35.382-54.984
			C533.596,673.744,554.872,633.104,554.872,588.279z"/>
		<path fill="#FFFFFF" d="M428.527,501.857c0-104.709-104.472-189.696-233.444-189.696c-128.975,0-233.445,84.987-233.445,189.696
			c0,54.626,28.568,103.754,74.109,138.298c-8.606,22.112-23.069,51.04-47.693,80.563c46.617,0,106.741-6.097,152.88-34.545
			c17.332,3.348,35.501,5.379,54.028,5.379C324.057,691.554,428.527,606.567,428.527,501.857z"/>
	</g>
</g>
<g id="star_empty" display="none">
	<path display="inline" fill="#FFFFFF" d="M556.784,467.553c-1.436-4.423-5.379-7.77-10.04-8.367l-192.565-27.73l-85.943-174.516
		c-2.032-4.184-6.335-6.933-11.116-6.933c-4.781,0-8.965,2.63-11.117,6.933L160.06,431.454l-192.326,27.73
		c-4.662,0.718-8.487,3.944-10.041,8.367c-1.435,4.422-0.239,9.442,3.108,12.67L100.294,615.89l-32.99,191.609
		c-0.836,4.662,1.076,9.323,4.901,12.073c3.825,2.749,8.845,3.106,13.029,0.956l172.125-90.726l172.125,90.726
		c1.793,0.956,3.824,1.435,5.736,1.435c2.512,0,5.142-0.837,7.292-2.391c3.825-2.75,5.737-7.411,4.9-12.073l-33.11-191.608
		l139.374-135.668C557.023,476.995,558.219,472.095,556.784,467.553z M470.124,504.368l-100.167,97.418l23.787,137.7
		c0.598,3.347-0.837,6.692-3.586,8.726c-1.556,1.075-3.349,1.673-5.26,1.673c-1.436,0-2.869-0.357-4.185-1.075L257.12,683.665
		L133.524,748.81c-2.988,1.555-6.574,1.314-9.324-0.718c-2.749-2.031-4.064-5.379-3.586-8.726l23.787-137.7L44.234,504.368
		c-2.391-2.392-3.347-5.857-2.271-9.085c1.076-3.228,3.825-5.617,7.172-6.097l138.297-19.962l61.678-125.388
		c1.554-2.987,4.542-4.901,8.009-4.901c3.467,0,6.455,1.914,8.008,4.901l61.679,125.388l138.298,19.962
		c3.348,0.479,6.097,2.869,7.172,6.097C473.352,498.511,472.515,501.978,470.124,504.368z"/>
</g>
<g id="star_full" display="none">
	<path display="inline" fill="#FFFFFF" d="M556.784,467.553c-1.436-4.423-5.379-7.77-10.04-8.367l-192.565-27.73l-85.943-174.516
		c-2.032-4.184-6.335-6.933-11.116-6.933c-4.662,0-8.965,2.63-11.117,6.933L160.06,431.454l-192.326,27.73
		c-4.662,0.718-8.487,3.944-10.041,8.367c-1.435,4.422-0.239,9.442,3.108,12.67L100.294,615.89l-32.99,191.609
		c-0.836,4.662,1.076,9.323,4.901,12.073c3.825,2.749,8.845,3.106,13.029,0.956l172.125-90.726l172.125,90.726
		c1.793,0.956,3.824,1.435,5.736,1.435c2.512,0,5.142-0.837,7.292-2.391c3.825-2.75,5.737-7.411,4.9-12.073l-33.11-191.608
		l139.374-135.668C557.023,476.995,558.219,472.095,556.784,467.553z"/>
</g>
<g id="trailer" display="none">
	<path display="inline" fill="#FFFFFF" d="M536.225,261.48h-23.188v46.377H443.35V261.48H71.966v46.377H2.279V261.48H-20.91
		c-12.79,0-23.189,10.399-23.189,23.189v510.637c0,12.79,10.399,23.189,23.189,23.189H2.279v-23.189h69.687v23.189H443.35v-23.189
		h69.688v23.189h23.188c12.79,0,23.189-10.399,23.189-23.189V284.669C559.414,271.88,549.015,261.48,536.225,261.48z M71.966,725.74
		H2.279v-69.688h69.687V725.74z M71.966,586.486H2.279v-69.688h69.687V586.486z M71.966,447.232H2.279v-69.688h69.687V447.232z
		 M364.1,555.288l-150.968,88.095c-2.51,1.195-5.14,1.793-7.77,1.793c-3.227,0-6.335-0.837-9.204-2.51
		c-5.14-3.108-8.248-8.606-8.248-14.464V452.014c0-5.977,3.107-11.476,8.248-14.583c5.14-3.107,11.594-3.347,16.973-0.718
		L364.1,524.688c5.857,2.867,9.563,8.726,9.563,15.181C373.662,546.563,369.957,552.42,364.1,555.288z M513.036,725.74H443.35
		v-69.688h69.688L513.036,725.74L513.036,725.74z M513.036,586.486H443.35v-69.688h69.688L513.036,586.486L513.036,586.486z
		 M513.036,447.232H443.35v-69.688h69.688L513.036,447.232L513.036,447.232z"/>
</g>
<g id="trailer_1_" display="none">
	<g display="inline">
		<path fill="#FFFFFF" d="M526.543,405.157v-32.991c0-12.191-9.802-21.994-21.994-21.994H9.929
			c-12.192,0-21.994,9.801-21.994,21.994v32.991h54.984v54.983h-54.984v54.984h54.984v54.984h-54.984v54.983h54.984v54.984h-54.984
			v32.99c0,12.191,9.802,21.994,21.994,21.994h494.62c12.192,0,21.994-9.803,21.994-21.994v-32.99h-54.984v-54.984h54.984V570.11
			h-54.984v-54.984h54.984v-54.984h-54.984v-54.983L526.543,405.157L526.543,405.157z M196.756,624.975V460.142l137.341,82.478
			L196.756,624.975z"/>
	</g>
	<g display="inline">
		<path fill="#FFFFFF" d="M525.706,367.624v349.749H-11.108V367.624H525.706 M541.245,334.154H-26.647
			c-9.921,0-17.93,8.129-17.93,17.931v380.827c0,9.921,8.128,17.93,17.93,17.93h567.893c9.921,0,17.93-8.129,17.93-17.93V352.085
			C559.175,342.284,551.047,334.154,541.245,334.154L541.245,334.154z"/>
	</g>
</g>
<g id="twitter">
	<path fill="#FFFFFF" d="M366.412,225.668c-4.362,1.944-9.056,3.248-13.987,3.841c5.026-3.011,8.891-7.8,10.716-13.466
		c-4.718,2.797-9.934,4.813-15.481,5.927c-4.434-4.742-10.764-7.705-17.781-7.705c-13.466,0-24.372,10.906-24.372,24.372
		c0,1.897,0.214,3.77,0.64,5.547c-20.247-1.019-38.217-10.716-50.238-25.462c-2.11,3.604-3.295,7.776-3.295,12.257
		c0,8.464,4.315,15.908,10.834,20.294c-4.03-0.166-7.8-1.28-11.071-3.106v0.309c0,11.807,8.417,21.669,19.559,23.897
		c-2.039,0.545-4.196,0.854-6.425,0.854c-1.565,0-3.106-0.166-4.6-0.45c3.106,9.673,12.115,16.738,22.76,16.928
		c-8.345,6.543-18.848,10.432-30.275,10.432c-1.968,0-3.912-0.119-5.809-0.332c10.788,6.923,23.59,10.953,37.364,10.953
		c44.833,0,69.346-37.15,69.346-69.347l-0.07-3.153C359.016,234.843,363.141,230.552,366.412,225.668z"/>
</g>
<g id="whatsapp" display="none">
	<path display="inline" fill="#FFFFFF" d="M256.761,278.454c-165.192,0-298.947,105.188-298.947,234.879
		c0,61.438,30.002,117.38,79.249,159.335c-1.913,40.76-10.28,95.625-40.282,123.954c57.136,0,115.587-37.533,150.251-64.667
		c33.947,10.639,71.001,16.376,109.729,16.376c165.192,0,298.948-105.188,298.948-234.879S421.953,278.454,256.761,278.454z"/>
</g>
</svg>
