<?xml version="1.0" encoding="iso-8859-1"?>
<!-- Generator: Adobe Illustrator 18.1.1, SVG Export Plug-In . SVG Version: 6.00 Build 0)  -->
<svg version="1.1" xmlns="http://www.w3.org/2000/svg" xmlns:xlink="http://www.w3.org/1999/xlink" x="0px" y="0px"
	 viewBox="0 0 64 64" style="enable-background:new 0 0 64 64;" xml:space="preserve">
<g id="pause">
	<path style="fill:#F2F2F2;" d="M12.809,61.934V2.063c0-0.55,0.45-1,1-1h11.917c0.55,0,1,0.45,1,1v59.871c0,0.55-0.45,1-1,1H13.809
		C13.259,62.934,12.809,62.484,12.809,61.934z"/>
	<path style="fill:#F2F2F2;" d="M37.809,61.998V2.127c0-0.55,0.45-1,1-1h11.917c0.55,0,1,0.45,1,1v59.871c0,0.55-0.45,1-1,1H38.809
		C38.259,62.998,37.809,62.548,37.809,61.998z"/>
	<g>
		<g>
			<path style="fill:#F2F2F2;" d="M21.459,13.459c7.721,0,7.734-12,0-12C13.738,1.459,13.725,13.459,21.459,13.459L21.459,13.459z"
				/>
		</g>
	</g>
</g>
<g id="Layer_1">
</g>
</svg>
