<?xml version="1.0" encoding="iso-8859-1"?>
<!-- Generator: Adobe Illustrator 18.1.1, SVG Export Plug-In . SVG Version: 6.00 Build 0)  -->
<svg version="1.1" xmlns="http://www.w3.org/2000/svg" xmlns:xlink="http://www.w3.org/1999/xlink" x="0px" y="0px"
	 viewBox="0 0 64 64" style="enable-background:new 0 0 64 64;" xml:space="preserve">
<g id="linkedin-full">
	<path style="fill:#F2F2F2;" d="M58.418,1.006H5.591C3.06,1.006,1.006,3,1.006,5.448v53.105c0,2.456,2.054,4.442,4.586,4.442h52.826
		c2.531,0,4.576-1.986,4.576-4.442V5.448C62.994,3,60.949,1.006,58.418,1.006z M19.8,52.9h-9.366V24.906H19.8V52.9z M15.118,21.085
		h-0.062c-3.139,0-5.178-2.149-5.178-4.835c0-2.743,2.098-4.835,5.303-4.835c3.203,0,5.172,2.092,5.235,4.835
		C20.415,18.936,18.383,21.085,15.118,21.085z M53.564,52.9H44.2V37.925c0-3.769-1.356-6.334-4.742-6.334
		c-2.59,0-4.13,1.733-4.799,3.405c-0.251,0.598-0.318,1.43-0.318,2.27V52.9h-9.356c0,0,0.119-25.364,0-27.994h9.356v3.973
		c1.243-1.907,3.465-4.627,8.439-4.627c6.165,0,10.785,3.999,10.785,12.599V52.9z M34.285,28.966l0.055-0.087v0.087H34.285z"/>
</g>
<g id="Layer_1">
</g>
</svg>
