<?xml version="1.0" encoding="utf-8"?>
<!-- Generator: Adobe Illustrator 18.1.0, SVG Export Plug-In . SVG Version: 6.00 Build 0)  -->
<svg version="1.1" id="Layer_1" xmlns="http://www.w3.org/2000/svg" xmlns:xlink="http://www.w3.org/1999/xlink" x="0px" y="0px"
	 viewBox="242 332 128 128" enable-background="new 242 332 128 128" xml:space="preserve">
<path fill="#FFFFFF" d="M362.7,392.5h-6.8c-1.6-24.8-21.6-44.7-46.4-46.4v-6.8c0-1.8-1.5-3.3-3.3-3.3h-0.1c-1.8,0-3.3,1.5-3.3,3.3
	v6.8c-24.8,1.6-44.7,21.6-46.4,46.4h-6.8c-1.8,0-3.3,1.5-3.3,3.3v0.1c0,1.8,1.5,3.3,3.3,3.3h6.8c1.6,24.8,21.6,44.7,46.4,46.4v6.8
	c0,1.8,1.5,3.3,3.3,3.3h0.1c1.8,0,3.3-1.5,3.3-3.3v-6.8c24.8-1.6,44.7-21.6,46.4-46.4h6.8c1.8,0,3.3-1.5,3.3-3.3v-0.1
	C366,393.9,364.5,392.5,362.7,392.5z M345.9,392.5h-5.8c-1.6-16.1-14.4-29-30.6-30.6v-5.8C328.9,357.7,344.3,373.1,345.9,392.5z
	 M324.4,399.1h10.6c-1.5,13.4-12.2,24-25.5,25.5V414c0-1.8-1.5-3.3-3.3-3.3h-0.1c-1.8,0-3.3,1.5-3.3,3.3v10.6
	c-13.4-1.5-24-12.2-25.5-25.5H288c1.8,0,3.3-1.5,3.3-3.3v-0.1c0-1.8-1.5-3.3-3.3-3.3h-10.6c1.5-13.4,12.2-24,25.5-25.5v10.6
	c0,1.8,1.5,3.3,3.3,3.3h0.1c1.8,0,3.3-1.5,3.3-3.3v-10.6c13.4,1.5,24,12.2,25.5,25.5h-10.6c-1.8,0-3.3,1.5-3.3,3.3v0.1
	C321.1,397.7,322.6,399.1,324.4,399.1z M302.9,356.1v5.8c-16.1,1.6-29,14.4-30.6,30.6h-5.8C268.1,373.1,283.5,357.7,302.9,356.1z
	 M266.5,399.1h5.8c1.6,16.1,14.4,29,30.6,30.6v5.8C283.5,433.9,268.1,418.5,266.5,399.1z M309.5,435.5v-5.8
	c16.1-1.6,29-14.4,30.6-30.6h5.8C344.3,418.5,328.9,433.9,309.5,435.5z"/>
</svg>
