<svg xmlns="http://www.w3.org/2000/svg" viewBox="0 0 64 64"><path d="M49.136 42.426c-2.35 0-4.516.796-6.255 2.13L25 33.82c.085-.55.146-1.113.146-1.676 0-.575-.06-1.138-.147-1.69l17.88-10.733c1.74 1.335 3.893 2.13 6.256 2.13 5.68 0 10.28-4.6 10.28-10.28s-4.6-10.282-10.28-10.282-10.282 4.602-10.282 10.28c0 .576.06 1.14.147 1.678L21.12 23.992c-1.74-1.334-3.893-2.13-6.256-2.13-5.68 0-10.28 4.602-10.28 10.282s4.6 10.28 10.28 10.28c2.362 0 4.516-.795 6.255-2.13L39 51.03c-.085.55-.146 1.113-.146 1.688 0 5.68 4.602 10.282 10.282 10.282s10.28-4.602 10.28-10.28-4.6-10.294-10.28-10.294z" fill="#F2F2F2"/></svg>