<?xml version="1.0" encoding="utf-8"?>
<!-- Generator: Adobe Illustrator 18.1.0, SVG Export Plug-In . SVG Version: 6.00 Build 0)  -->
<svg version="1.1" id="Layer_1" xmlns="http://www.w3.org/2000/svg" xmlns:xlink="http://www.w3.org/1999/xlink" x="0px" y="0px"
	 viewBox="-337 333 128 128" enable-background="new -337 333 128 128" xml:space="preserve">
<g>
	<path fill="#FFFFFF" d="M-274.5,406.3h-2.8c-1.5,0-2.7-1.2-2.7-2.7c0-0.5,0.2-1.1,0.6-1.5c1.7-1.6,3-3.8,4-6.1
		c0.2,0.1,0.4,0.3,0.7,0.3c1.6,0,3.5-3.5,3.5-5.9c0-2.4-0.2-4.3-1.8-4.3c-0.2,0-0.4,0-0.6,0.1c-0.1-6.5-1.8-14.6-11.7-14.6
		c-10.4,0-11.6,8.1-11.7,14.6c-0.1,0-0.3-0.1-0.4-0.1c-1.6,0-1.8,1.9-1.8,4.3c0,2.4,1.9,5.9,3.5,5.9c0.2,0,0.4-0.1,0.6-0.2
		c1,2.3,2.4,4.4,4,6c0.4,0.4,0.6,0.9,0.6,1.5c0,1.5-1.2,2.7-2.7,2.7h-2.8c-6.1,0-11,4.9-11,11v3c0,1.9,1.6,3.5,3.5,3.5h36.7
		c1.9,0,3.5-1.6,3.5-3.5v-3C-263.5,411.2-268.4,406.3-274.5,406.3z"/>
	<path fill="#FFFFFF" d="M-241.5,376.1h-30.8c0.9,2,1.5,4.4,1.8,7.4c0.7,0.4,1.2,1.1,1.6,1.8h27.4c1.4,0,2.6-1.2,2.6-2.6v-4.1
		C-239,377.2-240.1,376.1-241.5,376.1z"/>
	<path fill="#FFFFFF" d="M-241.5,392.9h-26.8c-0.7,2.7-2.5,5.6-5,6.4c-0.1,0.1-0.2,0.3-0.2,0.4v2.4h32c1.4,0,2.6-1.2,2.6-2.6v-4.1
		C-239,394.1-240.1,392.9-241.5,392.9z"/>
	<path fill="#FFFFFF" d="M-241.5,409.7h-20.9c1.4,2.2,2.2,4.8,2.2,7.5v1.7h18.7c1.4,0,2.6-1.2,2.6-2.6v-4.1
		C-239,410.9-240.1,409.7-241.5,409.7z"/>
	<path fill="#FFFFFF" d="M-230.5,350.4h-85.1c-8.7,0-15.8,7.1-15.8,15.8V429c0,8.7,7.1,15.8,15.8,15.8h85.1
		c8.7,0,15.8-7.1,15.8-15.8v-62.8C-214.7,357.5-221.7,350.4-230.5,350.4z M-222.1,429c0,4.6-3.7,8.3-8.3,8.3h-85.1
		c-4.6,0-8.3-3.7-8.3-8.3v-62.8c0-4.6,3.7-8.3,8.3-8.3h85.1c4.6,0,8.3,3.7,8.3,8.3C-222.1,366.2-222.1,429-222.1,429z"/>
</g>
</svg>
