<svg xmlns="http://www.w3.org/2000/svg" viewBox="0 0 64 64"><g fill="#F2F2F2"><path d="M18.322 2.992c0-1.065-.86-1.925-1.925-1.925H3.437c-1.066 0-1.926.86-1.926 1.925V15.96c0 1.065.86 1.925 1.926 1.925h12.968c1.065 0 1.925-.86 1.925-1.925V2.992h-.008zM40.76 2.992c0-1.065-.86-1.925-1.924-1.925h-12.96c-1.066 0-1.926.86-1.926 1.925V15.96c0 1.065.86 1.925 1.925 1.925h12.96c1.066 0 1.926-.86 1.926-1.925V2.992zM63.2 2.992c0-1.065-.86-1.925-1.925-1.925H48.313c-1.065 0-1.925.86-1.925 1.925V15.96c0 1.065.86 1.925 1.925 1.925H61.28c1.066 0 1.926-.86 1.926-1.925V2.992H63.2zM18.322 25.553c0-1.065-.86-1.925-1.925-1.925H3.437c-1.066 0-1.926.86-1.926 1.925v12.96c0 1.066.86 1.926 1.926 1.926h12.968c1.065 0 1.925-.86 1.925-1.926v-12.96h-.008zM40.76 25.553c0-1.065-.86-1.925-1.924-1.925h-12.96c-1.066 0-1.926.86-1.926 1.925v12.96c0 1.066.86 1.926 1.925 1.926h12.96c1.066 0 1.926-.86 1.926-1.926v-12.96zM63.2 25.553c0-1.065-.86-1.925-1.925-1.925H48.313c-1.065 0-1.925.86-1.925 1.925v12.96c0 1.066.86 1.926 1.925 1.926H61.28c1.066 0 1.926-.86 1.926-1.926v-12.96H63.2zM16.397 46.182H3.437c-1.066 0-1.926.86-1.926 1.925v12.968C1.51 62.14 2.37 63 3.437 63h12.968c1.065 0 1.925-.86 1.925-1.925V48.107c-.008-1.06-.867-1.925-1.933-1.925zM38.836 46.182h-12.96c-1.066 0-1.926.86-1.926 1.925v12.968c0 1.065.86 1.925 1.925 1.925h12.96c1.066 0 1.926-.86 1.926-1.925V48.107c0-1.06-.86-1.925-1.924-1.925zM61.275 46.182H48.313c-1.065 0-1.925.86-1.925 1.925v12.968c0 1.065.86 1.925 1.925 1.925H61.28c1.066 0 1.926-.86 1.926-1.925V48.107c-.006-1.06-.866-1.925-1.93-1.925z"/></g></svg>