<svg xmlns="http://www.w3.org/2000/svg" viewBox="0 0 64 64"><g fill="#F2F2F2"><path d="M61.73 15.135c.71 0 1.27-.56 1.27-1.27V2.27C63 1.61 62.39 1 61.73 1H2.392c-.356 0-.66.153-.915.356-.254.254-.356.56-.356.915v11.594c0 .356.153.66.356.915s.56.355.915.355H61.73zM61.73 38.98c.71 0 1.27-.558 1.27-1.27V26.117c0-.66-.61-1.27-1.27-1.27H2.392c-.356 0-.66.152-.915.355-.254.254-.356.56-.356.915V37.71c0 .356.153.66.356.915.254.254.56.356.915.356H61.73zM61.73 62.98c.71 0 1.27-.56 1.27-1.27V50.115c0-.66-.61-1.27-1.27-1.27H2.392c-.356 0-.66.152-.915.355-.254.255-.356.56-.356.916V61.71c0 .355.153.66.356.914.203.254.56.356.915.356H61.73z"/></g></svg>