<?xml version="1.0" encoding="iso-8859-1"?>
<!-- Generator: Adobe Illustrator 18.1.1, SVG Export Plug-In . SVG Version: 6.00 Build 0)  -->
<svg version="1.1" xmlns="http://www.w3.org/2000/svg" xmlns:xlink="http://www.w3.org/1999/xlink" x="0px" y="0px"
	 viewBox="0 0 64 64" style="enable-background:new 0 0 64 64;" xml:space="preserve">
<g id="search">
	<g id="search_1_">
		<path style="fill:#F2F2F2;" d="M61.888,55.442L44.909,38.515c0.155-0.207,0.259-0.621,0.362-1.087
			c1.812-3.002,2.899-6.264,3.261-9.732c0.052-0.828,0.104-1.656,0.104-2.433c0-2.64-0.414-5.28-1.346-7.868
			c-1.139-3.365-3.054-6.315-5.591-8.904c-9.162-9.214-24.537-9.214-33.647,0c-3.054,3.054-5.125,6.626-6.16,10.715
			c-1.087,4.141-1.087,8.179,0,12.268s3.106,7.661,6.16,10.715c4.555,4.555,10.612,6.937,16.824,6.937
			c4.762,0,9.111-1.398,13.097-3.882l0.621-0.362l17.031,16.979c0.621,0.621,1.346,1.035,1.967,1.087C57.747,63,57.85,63,57.954,63
			c0.466,0,0.88-0.155,1.242-0.362c0.466-0.259,0.932-0.621,1.501-1.191l0.776-0.776c0.518-0.518,0.932-1.035,1.191-1.501
			c0.207-0.362,0.311-0.828,0.311-1.398v-0.311C62.975,56.788,62.561,56.115,61.888,55.442z M43.77,30.284
			c-0.88,3.365-2.588,6.264-5.125,8.8c-3.675,3.675-8.593,5.694-13.821,5.694c-5.125,0-10.042-2.071-13.821-5.694
			c-7.454-7.144-7.454-20.447,0-27.643c3.779-3.624,8.645-5.746,13.821-5.746c5.435,0,9.991,1.915,13.821,5.746
			c2.485,2.485,4.245,5.435,5.125,8.748C44.65,23.607,44.65,26.971,43.77,30.284z"/>
	</g>
</g>
<g id="Layer_1">
</g>
</svg>
