<?xml version="1.0" encoding="iso-8859-1"?>
<!-- Generator: Adobe Illustrator 18.1.1, SVG Export Plug-In . SVG Version: 6.00 Build 0)  -->
<svg version="1.1" xmlns="http://www.w3.org/2000/svg" xmlns:xlink="http://www.w3.org/1999/xlink" x="0px" y="0px"
	 viewBox="0 0 64 64" style="enable-background:new 0 0 64 64;" xml:space="preserve">
<g id="arrow-right">
	<g id="arrow_down_3_">
		<path style="fill:#F2F2F2;" d="M62.035,31.078L31.747,0.803c-0.247-0.247-0.567-0.382-0.912-0.382
			c-0.345,0-0.666,0.136-0.912,0.382L21.566,9.16c-0.247,0.247-0.382,0.58-0.382,0.913c0,0.333,0.123,0.654,0.382,0.912
			l13.831,13.806H3.025c-0.345,0-0.666,0.136-0.912,0.382c-0.246,0.247-0.382,0.567-0.382,0.912v11.81
			c0,0.358,0.148,0.678,0.382,0.912c0.234,0.234,0.555,0.382,0.912,0.382h32.371L21.577,53.009c-0.481,0.481-0.481,1.331,0,1.824
			l8.358,8.346c0.506,0.506,1.319,0.506,1.824,0l30.276-30.276C62.516,32.422,62.516,31.559,62.035,31.078z"/>
	</g>
</g>
<g id="Layer_1">
</g>
</svg>
