<?xml version="1.0" encoding="utf-8"?>
<!-- Generator: Adobe Illustrator 18.1.0, SVG Export Plug-In . SVG Version: 6.00 Build 0)  -->
<svg version="1.1" id="Icons" xmlns="http://www.w3.org/2000/svg" xmlns:xlink="http://www.w3.org/1999/xlink" x="0px" y="0px"
	 viewBox="-269 333 128 128" enable-background="new -269 333 128 128" xml:space="preserve">
<path id="YouTube" fill="#FFFFFF" d="M-171.6,423.9h-6.4l0-3.7c0-1.6,1.3-3,3-3h0.4c1.7,0,3,1.3,3,3L-171.6,423.9z M-195.4,415.9
	c-1.6,0-2.9,1.1-2.9,2.4v18c0,1.3,1.3,2.4,2.9,2.4c1.6,0,2.9-1.1,2.9-2.4v-18C-192.5,417-193.8,415.9-195.4,415.9z M-156.7,405.9
	v34.2c0,8.2-7.1,14.9-15.8,14.9h-65c-8.7,0-15.8-6.7-15.8-14.9v-34.2c0-8.2,7.1-14.9,15.8-14.9h65
	C-163.8,390.9-156.7,397.7-156.7,405.9z M-233.2,443.8l0-36l8.1,0v-5.3l-21.5,0v5.2l6.7,0v36.1H-233.2z M-209,413.1h-6.7v19.2
	c0,2.8,0.2,4.2,0,4.7c-0.5,1.5-3,3.1-4,0.2c-0.2-0.5,0-2.1,0-4.7l0-19.4h-6.7l0,19.1c0,2.9-0.1,5.1,0,6.1c0.2,1.7,0.1,3.8,1.7,5
	c3,2.2,8.8-0.3,10.3-3.4l0,4l5.4,0L-209,413.1L-209,413.1z M-187.5,435.2l0-16c0-6.1-4.6-9.8-10.8-4.8l0-11.9l-6.7,0l0,41.1l5.5-0.1
	l0.5-2.6C-191.9,447.4-187.5,442.9-187.5,435.2z M-166.5,433l-5,0c0,0.2,0,0.4,0,0.7v2.8c0,1.5-1.2,2.7-2.8,2.7h-1
	c-1.5,0-2.8-1.2-2.8-2.7v-0.3v-3.1v-4h11.5v-4.3c0-3.2-0.1-6.3-0.3-8.2c-0.8-5.7-8.9-6.7-13-3.7c-1.3,0.9-2.3,2.1-2.8,3.8
	c-0.6,1.7-0.9,3.9-0.9,6.8v9.5C-183.5,448.9-164.2,446.7-166.5,433z M-192.3,381.2c0.3,0.8,0.9,1.5,1.6,2c0.7,0.5,1.6,0.8,2.8,0.8
	c1,0,1.8-0.3,2.6-0.8c0.7-0.5,1.4-1.3,1.9-2.4l-0.1,2.6h7.5v-31.9h-5.9v24.8c0,1.3-1.1,2.4-2.5,2.4c-1.3,0-2.5-1.1-2.5-2.4v-24.8
	h-6.2V373c0,2.7,0,4.6,0.1,5.5C-192.9,379.5-192.7,380.3-192.3,381.2z M-215,363.2c0-3.1,0.3-5.4,0.8-7.2c0.5-1.7,1.4-3.1,2.8-4.1
	c1.3-1,3-1.6,5.1-1.6c1.7,0,3.2,0.3,4.5,1c1.2,0.7,2.2,1.5,2.9,2.6c0.7,1.1,1.1,2.2,1.4,3.3c0.3,1.1,0.4,2.9,0.4,5.2v8.1
	c0,3-0.1,5.1-0.3,6.5c-0.2,1.4-0.7,2.7-1.5,3.9c-0.7,1.2-1.7,2.1-2.9,2.6c-1.2,0.6-2.5,0.9-4.1,0.9c-1.7,0-3.1-0.2-4.3-0.7
	c-1.2-0.5-2.1-1.2-2.8-2.2c-0.7-1-1.1-2.2-1.4-3.6c-0.3-1.4-0.4-3.5-0.4-6.3L-215,363.2L-215,363.2z M-209.2,375.8
	c0,1.8,1.3,3.3,3,3.3c1.6,0,3-1.5,3-3.3v-17c0-1.8-1.3-3.3-3-3.3c-1.6,0-3,1.5-3,3.3V375.8z M-229.9,384.4h7.1l0-24.4l8.4-20.9h-7.7
	l-4.4,15.5l-4.5-15.6h-7.7l8.9,21L-229.9,384.4z"/>
</svg>
