<?xml version="1.0" encoding="utf-8"?>
<!-- Generator: Adobe Illustrator 18.1.0, SVG Export Plug-In . SVG Version: 6.00 Build 0)  -->
<svg version="1.1" id="Capa_1" xmlns="http://www.w3.org/2000/svg" xmlns:xlink="http://www.w3.org/1999/xlink" x="0px" y="0px"
	 viewBox="143 333 128 128" enable-background="new 143 333 128 128" xml:space="preserve">
<path fill="#FFFFFF" d="M145,459h62V335h-62V459z M183.8,350.5h15.5V366h-15.5V350.5z M183.8,381.5h15.5V397h-15.5V381.5z
	 M183.8,412.5h15.5V428h-15.5V412.5z M152.8,350.5h15.5V366h-15.5V350.5z M152.8,381.5h15.5V397h-15.5V381.5z M152.8,412.5h15.5V428
	h-15.5V412.5z M214.8,373.8H269v7.8h-54.3V373.8z M214.8,459h15.5v-31h23.3v31H269v-69.8h-54.3V459z"/>
</svg>
