<svg xmlns="http://www.w3.org/2000/svg" viewBox="0 0 64 64"><path d="M9.305 1.468h45.39c4.326 0 7.837 3.197 7.837 7.837v45.39c0 4.64-3.51 7.837-7.837 7.837H9.305c-4.326 0-7.837-3.197-7.837-7.837V9.305c0-4.64 3.51-7.837 7.837-7.837zm36.613 6.77c-1.505 0-2.758 1.255-2.758 2.76v6.583c0 1.506 1.254 2.76 2.758 2.76h6.896c1.505 0 2.76-1.254 2.76-2.76V11c0-1.505-1.255-2.76-2.76-2.76h-6.896zm9.717 19.06h-5.392c.502 1.63.815 3.448.815 5.266 0 10.156-8.526 18.37-18.996 18.37s-18.996-8.214-18.996-18.37c0-1.818.25-3.574.815-5.266H8.3v25.767c0 1.317 1.067 2.445 2.446 2.445h42.506c1.317 0 2.445-1.066 2.445-2.445l-.062-25.767zm-23.572-7.335c-6.77 0-12.288 5.33-12.288 11.912s5.517 11.912 12.288 11.912 12.288-5.33 12.288-11.912c0-6.583-5.516-11.912-12.287-11.912z" fill="#F2F2F2"/></svg>