<?xml version="1.0" encoding="utf-8"?>
<!-- Generator: Adobe Illustrator 18.1.0, SVG Export Plug-In . SVG Version: 6.00 Build 0)  -->
<svg version="1.1" id="Icons" xmlns="http://www.w3.org/2000/svg" xmlns:xlink="http://www.w3.org/1999/xlink" x="0px" y="0px"
	 viewBox="-269 333 128 128" enable-background="new -269 333 128 128" xml:space="preserve">
<path id="LinkedIn" fill="#FFFFFF" d="M-144.3,410.1V455h-26v-41.9c0-10.5-3.8-17.7-13.2-17.7c-7.2,0-11.5,4.8-13.3,9.5
	c-0.7,1.7-0.9,4-0.9,6.3V455h-26c0,0,0.4-70.9,0-78.3h26v11.1c-0.1,0.1-0.1,0.2-0.2,0.3h0.2v-0.3c3.5-5.3,9.6-12.9,23.5-12.9
	C-157.1,374.9-144.3,386.1-144.3,410.1z M-251,339c-8.9,0-14.7,5.8-14.7,13.5c0,7.5,5.7,13.5,14.4,13.5h0.2c9.1,0,14.7-6,14.7-13.5
	C-236.6,344.8-242.1,339-251,339z M-264.2,455h26v-78.3h-26V455z"/>
</svg>
