<?xml version="1.0" encoding="utf-8"?>
<!-- Generator: Adobe Illustrator 18.1.0, SVG Export Plug-In . SVG Version: 6.00 Build 0)  -->
<svg version="1.1" id="Icons" xmlns="http://www.w3.org/2000/svg" xmlns:xlink="http://www.w3.org/1999/xlink" x="0px" y="0px"
	 viewBox="-269 333 128 128" enable-background="new -269 333 128 128" xml:space="preserve">
<path id="LinkedIn__x28_alt_x29_" fill="#FFFFFF" d="M-154.8,338.1h-101.4c-4.9,0-8.8,3.8-8.8,8.5v101.9c0,4.7,3.9,8.5,8.8,8.5
	h101.4c4.9,0,8.8-3.8,8.8-8.5V346.6C-146,341.9-149.9,338.1-154.8,338.1z M-228.9,437.7h-18V384h18V437.7z M-237.9,376.7h-0.1
	c-6,0-9.9-4.1-9.9-9.3c0-5.3,4-9.3,10.2-9.3c6.1,0,9.9,4,10.1,9.3C-227.7,372.5-231.6,376.7-237.9,376.7z M-164.1,437.7h-18V409
	c0-7.2-2.6-12.2-9.1-12.2c-5,0-7.9,3.3-9.2,6.5c-0.5,1.1-0.6,2.8-0.6,4.4v30h-18c0,0,0.2-48.7,0-53.7h18v7.6
	c2.4-3.7,6.6-8.9,16.2-8.9c11.8,0,20.7,7.7,20.7,24.2C-164.1,406.9-164.1,437.7-164.1,437.7z M-201.1,391.8c0-0.1,0.1-0.1,0.1-0.2
	v0.2H-201.1z"/>
</svg>
