<?xml version="1.0" encoding="iso-8859-1"?>
<!-- Generator: Adobe Illustrator 18.1.1, SVG Export Plug-In . SVG Version: 6.00 Build 0)  -->
<svg version="1.1" xmlns="http://www.w3.org/2000/svg" xmlns:xlink="http://www.w3.org/1999/xlink" x="0px" y="0px"
	 viewBox="0 0 64 64" style="enable-background:new 0 0 64 64;" xml:space="preserve">
<g id="plus">
	<g id="close">
		<path style="fill:#F2F2F2;" d="M38.899,61.299L38.899,61.299V38.975h22.325l0,0c0.266,0,0.478-0.053,0.691-0.159
			c0.585-0.266,0.957-0.797,0.957-1.488V26.749c0-0.638-0.372-1.223-0.957-1.488c-0.213-0.106-0.425-0.159-0.691-0.159l0,0H38.845
			V2.777l0,0c0-0.266-0.053-0.478-0.159-0.691c-0.266-0.585-0.797-0.957-1.488-0.957H26.62c-0.638,0-1.223,0.372-1.488,0.957
			c-0.106,0.213-0.159,0.425-0.159,0.691l0,0v22.378H2.648l0,0c-0.266,0-0.478,0.053-0.691,0.159C1.372,25.58,1,26.111,1,26.802
			V37.38c0,0.638,0.372,1.223,0.957,1.488c0.213,0.106,0.425,0.159,0.691,0.159l0,0h22.378v22.325l0,0
			c0,0.266,0.053,0.478,0.159,0.691C25.451,62.628,25.982,63,26.673,63h10.578c0.638,0,1.223-0.372,1.488-0.957
			C38.845,61.777,38.899,61.565,38.899,61.299z"/>
	</g>
</g>
<g id="Layer_1">
</g>
</svg>
