<svg xmlns="http://www.w3.org/2000/svg" viewBox="0 0 64 64"><g fill="#F2F2F2"><path d="M41.1 1.037H26.287c-6.605 0-11.158 1.475-15.262 4.873-3.205 2.822-5.193 6.86-5.193 10.837 0 6.156 4.68 12.697 13.402 12.697.834 0 1.795-.064 2.565-.192l-.13.32c-.32.835-.704 1.604-.704 2.887 0 2.436 1.154 3.91 2.308 5.32l.128.193h-.256c-3.59.256-10.26.705-15.197 3.72-5.772 3.462-6.22 8.4-6.22 9.874 0 5.77 5.385 11.606 17.377 11.606 13.98 0 21.225-7.695 21.225-15.326 0-5.643-3.27-8.4-6.797-11.35l-2.95-2.308c-.898-.77-2.052-1.668-2.052-3.464 0-1.73 1.154-2.82 2.116-3.847l.127-.13c3.206-2.5 6.797-5.385 6.797-11.54 0-6.22-3.847-9.363-5.707-10.902h4.938c.064 0 .128 0 .192-.064l4.232-2.63c.127-.063.19-.19.127-.384 0-.13-.13-.193-.257-.193zM23.145 59.71c-8.53 0-14.236-3.976-14.236-9.875 0-3.847 2.307-6.67 6.924-8.336 3.655-1.22 8.464-1.283 8.464-1.283.834 0 1.218 0 1.86.064 5.964 4.233 8.785 6.478 8.785 10.71.065 5.386-4.488 8.72-11.798 8.72zm-.064-32.575c-7.117 0-10.13-9.362-10.13-14.428 0-2.565.576-4.49 1.794-6.028 1.282-1.604 3.527-2.694 5.643-2.694 6.54 0 10.196 8.785 10.196 14.877 0 .962 0 3.912-1.988 5.9-1.41 1.474-3.59 2.372-5.514 2.372zM61.876 30.02h-7.823v-7.758c0-.192-.128-.32-.32-.32h-3.335c-.192 0-.32.127-.32.32v7.76h-7.76c-.192 0-.32.127-.32.32v3.4c0 .19.127.32.32.32h7.76v7.823c0 .192.127.32.32.32h3.334c.192 0 .32-.127.32-.32v-7.823h7.824c.192 0 .32-.128.32-.32v-3.4c0-.193-.127-.32-.32-.32z"/></g></svg>