<?xml version="1.0" encoding="utf-8"?>
<!-- Generator: Adobe Illustrator 18.1.0, SVG Export Plug-In . SVG Version: 6.00 Build 0)  -->
<svg version="1.1" id="Layer_1" xmlns="http://www.w3.org/2000/svg" xmlns:xlink="http://www.w3.org/1999/xlink" x="0px" y="0px"
	 viewBox="143 333 128 128" enable-background="new 143 333 128 128" xml:space="preserve">
<path fill="#FFFFFF" d="M253,378.1V443c0,8.5-6.9,15.3-15.3,15.3H161c-8.5,0-15.3-6.9-15.3-15.3v-76.7c0-8.5,6.9-15.3,15.3-15.3
	h64.9l-15.3,15.3H161V443h76.7v-49.6L253,378.1z M252.1,335.7l-12.6,12.6l16.3,16.3l12.6-12.6L252.1,335.7z M182.9,404.9l16.3,16.3
	l51.2-51.2L234,353.7L182.9,404.9z M175.2,428.8l17.7-2.4l-15.3-15.3L175.2,428.8z"/>
</svg>
