<?xml version="1.0" encoding="iso-8859-1"?>
<!-- Generator: Adobe Illustrator 18.1.1, SVG Export Plug-In . SVG Version: 6.00 Build 0)  -->
<svg version="1.1" xmlns="http://www.w3.org/2000/svg" xmlns:xlink="http://www.w3.org/1999/xlink" x="0px" y="0px"
	 viewBox="0 0 64 64" style="enable-background:new 0 0 64 64;" xml:space="preserve">
<g id="speech-bubble">
	<path style="fill-rule:evenodd;clip-rule:evenodd;fill:#F2F2F2;" d="M62.625,25.787c0-13.488-13.714-24.412-30.621-24.412
		c-16.92,0-30.629,10.924-30.629,24.412c0,11.701,10.355,21.492,24.173,23.858c-0.32,3.91-1.129,8.359-2.836,12.98
		c6.759-1.802,12.668-7.84,16.761-13.167C52.771,46.8,62.625,37.204,62.625,25.787z M45.135,40.819
		c-0.412,0.075-0.821,0.138-1.24,0.18c-0.443,0.049-0.89,0.075-1.34,0.075c-0.394,0-0.777-0.03-1.165-0.064
		c4.8-3.451,7.927-8.98,7.927-15.223c0-6.868-3.765-12.86-9.387-16.188c0.854-0.164,1.727-0.269,2.624-0.269
		c8.129,0,14.722,7.103,14.722,15.877C57.277,33.017,52.034,39.503,45.135,40.819z"/>
</g>
<g id="Layer_1">
</g>
</svg>
