<?xml version="1.0" encoding="iso-8859-1"?>
<!-- Generator: Adobe Illustrator 18.1.1, SVG Export Plug-In . SVG Version: 6.00 Build 0)  -->
<svg version="1.1" xmlns="http://www.w3.org/2000/svg" xmlns:xlink="http://www.w3.org/1999/xlink" x="0px" y="0px"
	 viewBox="0 0 64 64" style="enable-background:new 0 0 64 64;" xml:space="preserve">
<g id="twitter">
	<g id="twitter_1_">
		<path style="fill:#F2F2F2;" d="M63,13.031c-2.274,1.014-4.722,1.693-7.292,2.003c2.62-1.57,4.636-4.067,5.587-7.021
			c-2.46,1.458-5.179,2.509-8.071,3.09c-2.312-2.472-5.612-4.017-9.271-4.017c-7.021,0-12.707,5.686-12.707,12.707
			c0,0.989,0.112,1.966,0.334,2.892C21.023,22.153,11.654,17.097,5.387,9.409c-1.1,1.879-1.718,4.054-1.718,6.39
			c0,4.413,2.25,8.294,5.649,10.581c-2.101-0.087-4.067-0.667-5.772-1.619v0.161c0,6.156,4.388,11.298,10.198,12.459
			c-1.063,0.284-2.188,0.445-3.35,0.445c-0.816,0-1.619-0.087-2.398-0.235c1.619,5.043,6.316,8.727,11.866,8.826
			c-4.351,3.411-9.827,5.439-15.785,5.439c-1.026,0-2.04-0.062-3.029-0.173c5.625,3.609,12.299,5.711,19.481,5.711
			c23.375,0,36.155-19.369,36.155-36.156l-0.036-1.644C59.144,17.814,61.295,15.577,63,13.031z"/>
	</g>
</g>
<g id="Layer_1">
</g>
</svg>
