<?xml version="1.0" standalone="no"?>
<!DOCTYPE svg PUBLIC "-//W3C//DTD SVG 20010904//EN"
 "http://www.w3.org/TR/2001/REC-SVG-20010904/DTD/svg10.dtd">
<svg version="1.0" xmlns="http://www.w3.org/2000/svg"
 width="16.000000pt" height="16.000000pt" viewBox="0 0 16.000000 16.000000"
 preserveAspectRatio="xMidYMid meet">
<metadata>
Created by potrace 1.11, written by Peter Selinger 2001-2013
</metadata>
<g transform="translate(0.000000,16.000000) scale(0.003125,-0.003125)"
fill="#000000" stroke="none">
<path d="M745 4843 c-207 -43 -371 -201 -422 -404 -15 -62 -11 -190 7 -258 46
-166 157 -288 325 -357 64 -26 80 -29 185 -28 96 0 125 4 174 24 116 45 223
131 273 219 15 26 30 51 35 57 6 9 35 4 106 -17 53 -16 106 -31 117 -33 25 -6
665 -187 800 -227 55 -16 123 -36 152 -45 45 -13 51 -17 47 -37 -13 -59 -15
-240 -5 -322 18 -132 44 -223 103 -355 29 -64 139 -227 190 -280 35 -36 160
-147 177 -157 3 -2 -37 -63 -49 -73 -3 -3 -30 -36 -60 -75 -67 -85 -82 -104
-95 -119 -6 -6 -46 -56 -89 -110 -43 -54 -85 -106 -92 -115 -17 -20 -596 -743
-633 -789 -14 -19 -50 -63 -79 -99 -29 -36 -59 -74 -67 -86 l-15 -21 -54 23
c-94 39 -155 50 -245 47 -218 -8 -398 -137 -478 -343 -23 -59 -27 -83 -27
-183 0 -104 3 -122 28 -185 88 -213 263 -337 481 -339 126 -1 173 9 269 61
115 61 206 171 252 304 28 81 25 253 -6 334 -25 66 -73 145 -114 187 -14 15
-26 30 -26 33 0 5 996 1253 1010 1265 3 3 21 25 40 50 19 25 37 47 40 50 3 3
23 28 44 55 22 28 43 54 47 58 4 5 40 -7 80 -26 85 -40 206 -82 264 -92 22 -3
63 -10 90 -15 91 -15 311 -5 410 20 146 36 311 112 423 197 98 73 219 201 279
295 64 102 140 286 158 383 3 17 9 48 13 70 14 78 7 326 -11 404 -38 159 -90
280 -176 408 -161 239 -399 402 -693 474 -74 19 -122 23 -233 24 -158 0 -212
-6 -322 -36 -127 -35 -223 -80 -340 -158 -180 -122 -329 -300 -407 -489 -34
-83 -39 -96 -41 -102 -14 -54 -12 -54 -90 -29 -32 10 -730 208 -755 214 -8 2
-97 28 -197 56 l-182 52 6 82 c9 138 -46 298 -135 392 -53 55 -135 110 -207
138 -57 23 -88 28 -165 30 -52 2 -104 1 -115 -2z"/>
</g>
</svg>
