<?xml version="1.0" encoding="iso-8859-1"?>
<!-- Generator: Adobe Illustrator 18.1.1, SVG Export Plug-In . SVG Version: 6.00 Build 0)  -->
<svg version="1.1" xmlns="http://www.w3.org/2000/svg" xmlns:xlink="http://www.w3.org/1999/xlink" x="0px" y="0px"
	 viewBox="0 0 64 64" style="enable-background:new 0 0 64 64;" xml:space="preserve">
<g id="close">
	<g id="close_1_">
		<path style="fill:#F2F2F2;" d="M12.252,61.66L12.252,61.66l19.786-19.786L51.823,61.66l0,0c0.188,0.188,0.376,0.301,0.601,0.376
			c0.601,0.226,1.24,0.113,1.729-0.376l7.479-7.479c0.451-0.451,0.601-1.128,0.376-1.729c-0.075-0.226-0.188-0.413-0.376-0.601l0,0
			L41.81,32.027l19.786-19.786l0,0c0.188-0.188,0.301-0.376,0.376-0.601c0.226-0.601,0.113-1.24-0.376-1.729l-7.479-7.479
			c-0.451-0.451-1.128-0.601-1.729-0.376c-0.226,0.075-0.413,0.188-0.601,0.376l0,0L31.962,22.255L12.177,2.469l0,0
			c-0.188-0.188-0.376-0.301-0.601-0.376c-0.601-0.226-1.24-0.113-1.729,0.376L2.367,9.948c-0.451,0.451-0.601,1.128-0.376,1.729
			c0.075,0.226,0.188,0.413,0.376,0.601l0,0L22.19,32.102L2.404,51.888l0,0c-0.188,0.188-0.301,0.376-0.376,0.601
			c-0.226,0.601-0.113,1.24,0.376,1.729l7.479,7.479c0.451,0.451,1.128,0.601,1.729,0.376C11.876,61.961,12.064,61.848,12.252,61.66
			z"/>
	</g>
</g>
<g id="Layer_1">
</g>
</svg>
