<?xml version="1.0" encoding="iso-8859-1"?>
<!-- Generator: Adobe Illustrator 18.1.1, SVG Export Plug-In . SVG Version: 6.00 Build 0)  -->
<svg version="1.1" xmlns="http://www.w3.org/2000/svg" xmlns:xlink="http://www.w3.org/1999/xlink" x="0px" y="0px"
	 viewBox="0 0 64 64" style="enable-background:new 0 0 64 64;" xml:space="preserve">
<g id="arrow-up">
	<g id="arrow_down_2_">
		<path style="fill:#F2F2F2;" d="M31.152,2.017L0.877,32.305c-0.247,0.247-0.382,0.567-0.382,0.912s0.136,0.666,0.382,0.912
			l8.357,8.357c0.247,0.247,0.58,0.382,0.913,0.382c0.333,0,0.654-0.123,0.912-0.382l13.806-13.831v32.372
			c0,0.345,0.136,0.666,0.382,0.912c0.247,0.246,0.567,0.382,0.912,0.382h11.81c0.358,0,0.678-0.148,0.912-0.382
			c0.234-0.234,0.382-0.555,0.382-0.912V28.656l13.819,13.819c0.481,0.481,1.331,0.481,1.824,0l8.346-8.358
			c0.506-0.506,0.506-1.319,0-1.824L32.977,2.018C32.496,1.536,31.633,1.536,31.152,2.017z"/>
	</g>
</g>
<g id="Layer_1">
</g>
</svg>
