<?xml version="1.0" encoding="iso-8859-1"?>
<!-- Generator: Adobe Illustrator 18.1.1, SVG Export Plug-In . SVG Version: 6.00 Build 0)  -->
<svg version="1.1" xmlns="http://www.w3.org/2000/svg" xmlns:xlink="http://www.w3.org/1999/xlink" x="0px" y="0px"
	 viewBox="0 0 64 64" style="enable-background:new 0 0 64 64;" xml:space="preserve">
<g id="gplus">
	<g>
		<g>
			<path style="fill:#F2F2F2;" d="M41.1,1.037H26.287c-6.605,0-11.158,1.475-15.262,4.873C7.82,8.732,5.832,12.771,5.832,16.747
				c0,6.156,4.681,12.697,13.402,12.697c0.834,0,1.795-0.064,2.565-0.192l-0.128,0.321c-0.321,0.834-0.705,1.603-0.705,2.886
				c0,2.437,1.154,3.912,2.308,5.322l0.128,0.192h-0.256c-3.591,0.256-10.26,0.705-15.197,3.719c-5.771,3.463-6.22,8.4-6.22,9.875
				c0,5.771,5.386,11.606,17.378,11.606c13.979,0,21.225-7.695,21.225-15.326c0-5.643-3.27-8.4-6.797-11.35l-2.95-2.308
				c-0.898-0.769-2.052-1.667-2.052-3.463c0-1.731,1.154-2.821,2.116-3.847l0.128-0.128c3.206-2.501,6.797-5.386,6.797-11.542
				c0-6.22-3.847-9.362-5.707-10.901h4.938c0.064,0,0.128,0,0.192-0.064l4.232-2.629c0.128-0.064,0.192-0.192,0.128-0.385
				C41.357,1.101,41.228,1.037,41.1,1.037z M23.145,59.71c-8.529,0-14.236-3.976-14.236-9.875c0-3.847,2.308-6.669,6.925-8.336
				c3.655-1.218,8.464-1.282,8.464-1.282c0.834,0,1.218,0,1.86,0.064c5.964,4.232,8.785,6.477,8.785,10.709
				C35.008,56.376,30.455,59.71,23.145,59.71z M23.081,27.135c-7.118,0-10.132-9.362-10.132-14.428c0-2.565,0.577-4.489,1.795-6.028
				c1.282-1.603,3.527-2.693,5.643-2.693c6.541,0,10.196,8.785,10.196,14.877c0,0.962,0,3.912-1.988,5.899
				C27.185,26.237,25.005,27.135,23.081,27.135z"/>
			<path style="fill:#F2F2F2;" d="M61.876,30.021h-7.823v-7.759c0-0.192-0.128-0.321-0.321-0.321h-3.334
				c-0.192,0-0.321,0.128-0.321,0.321v7.759h-7.759c-0.192,0-0.321,0.128-0.321,0.321v3.399c0,0.192,0.128,0.321,0.321,0.321h7.759
				v7.823c0,0.192,0.128,0.321,0.321,0.321h3.334c0.192,0,0.321-0.128,0.321-0.321v-7.823h7.823c0.192,0,0.321-0.128,0.321-0.321
				v-3.399C62.197,30.149,62.069,30.021,61.876,30.021z"/>
		</g>
	</g>
</g>
<g id="Layer_1">
</g>
</svg>
