<svg xmlns="http://www.w3.org/2000/svg" viewBox="0 0 64 64"><g fill="#F2F2F2"><path d="M20.336 47.552h19.44v3.89h-19.44zM16.45 4.783h31.103v7.776h3.888V4.782c0-2.145-1.738-3.888-3.887-3.888H16.45c-2.148 0-3.89 1.743-3.89 3.888v7.776h3.89V4.782zM20.336 39.776h23.327v3.888H20.336z"/><path d="M59.217 16.447H4.784c-2.147 0-3.888 1.743-3.888 3.888v23.33c0 2.148 1.74 3.887 3.888 3.887h7.776v11.665c0 2.15 1.74 3.888 3.888 3.888h31.104c2.15 0 3.888-1.74 3.888-3.888V47.552h7.777c2.15 0 3.888-1.74 3.888-3.888v-23.33c0-2.144-1.74-3.887-3.888-3.887zm-11.664 42.77H16.45v-23.33h31.103v23.33zm7.775-31.105c-2.15 0-3.888-1.74-3.888-3.888 0-2.145 1.74-3.888 3.888-3.888 2.15 0 3.89 1.743 3.89 3.888 0 2.15-1.74 3.888-3.89 3.888z"/></g></svg>