<svg xmlns="http://www.w3.org/2000/svg" viewBox="0 0 64 64"><path d="M32.607 48.962l24.08-24.09c.195-.195.303-.45.303-.725 0-.274-.108-.53-.304-.726l-6.647-6.646c-.197-.196-.462-.304-.727-.304-.265 0-.52.098-.726.304l-10.98 11V2.03c0-.275-.11-.53-.305-.727-.195-.195-.45-.303-.724-.303h-9.393c-.284 0-.54.118-.726.304-.187.186-.305.44-.305.726v25.746l-10.99-10.99c-.382-.383-1.06-.383-1.45 0l-6.64 6.646c-.4.402-.4 1.05 0 1.45l24.08 24.08c.384.383 1.07.383 1.452 0zM61.5 63.21H2.344c-.825 0-1.5-.676-1.5-1.5V54.02c0-.825.675-1.5 1.5-1.5H61.5c.825 0 1.5.675 1.5 1.5v7.687c0 .824-.675 1.5-1.5 1.5z" fill="#F2F2F2"/></svg>