<?xml version="1.0" encoding="iso-8859-1"?>
<!-- Generator: Adobe Illustrator 18.1.1, SVG Export Plug-In . SVG Version: 6.00 Build 0)  -->
<svg version="1.1" xmlns="http://www.w3.org/2000/svg" xmlns:xlink="http://www.w3.org/1999/xlink" x="0px" y="0px"
	 viewBox="0 0 64 64" style="enable-background:new 0 0 64 64;" xml:space="preserve">
<g id="list">
	<g id="menu_11_">
		<path style="fill:#F2F2F2;" d="M61.729,15.135c0.712,0,1.271-0.559,1.271-1.271V2.271C63,1.61,62.39,1,61.729,1H26.393
			c-0.356,0-0.661,0.153-0.915,0.356c-0.254,0.254-0.356,0.559-0.356,0.915v11.593c0,0.356,0.153,0.661,0.356,0.915
			c0.203,0.254,0.559,0.356,0.915,0.356H61.729L61.729,15.135z"/>
		<path style="fill:#F2F2F2;" d="M61.729,38.981c0.712,0,1.271-0.559,1.271-1.271V26.117c0-0.661-0.61-1.271-1.271-1.271H26.393
			c-0.356,0-0.661,0.153-0.915,0.356c-0.254,0.254-0.356,0.559-0.356,0.915V37.71c0,0.356,0.153,0.661,0.356,0.915
			c0.254,0.254,0.559,0.356,0.915,0.356H61.729L61.729,38.981z"/>
		<path style="fill:#F2F2F2;" d="M61.729,62.98c0.712,0,1.271-0.559,1.271-1.271V50.116c0-0.661-0.61-1.271-1.271-1.271H26.393
			c-0.356,0-0.661,0.153-0.915,0.356c-0.254,0.254-0.356,0.559-0.356,0.915v11.593c0,0.356,0.153,0.661,0.356,0.915
			c0.203,0.254,0.559,0.356,0.915,0.356H61.729L61.729,62.98z"/>
	</g>
	<g id="menu_8_">
		<path style="fill:#F2F2F2;" d="M13.729,15.135c0.712,0,1.271-0.559,1.271-1.271V2.271C15,1.61,14.39,1,13.729,1H2.393
			C2.037,1,1.732,1.153,1.478,1.356C1.224,1.61,1.122,1.915,1.122,2.271v11.593c0,0.356,0.153,0.661,0.356,0.915
			s0.559,0.356,0.915,0.356H13.729L13.729,15.135z"/>
		<path style="fill:#F2F2F2;" d="M13.729,38.981c0.712,0,1.271-0.559,1.271-1.271V26.117c0-0.661-0.61-1.271-1.271-1.271H2.393
			c-0.356,0-0.661,0.153-0.915,0.356c-0.254,0.254-0.356,0.559-0.356,0.915V37.71c0,0.356,0.153,0.661,0.356,0.915
			c0.254,0.254,0.559,0.356,0.915,0.356H13.729L13.729,38.981z"/>
		<path style="fill:#F2F2F2;" d="M13.729,62.98c0.712,0,1.271-0.559,1.271-1.271V50.116c0-0.661-0.61-1.271-1.271-1.271H2.393
			c-0.356,0-0.661,0.153-0.915,0.356c-0.254,0.254-0.356,0.559-0.356,0.915v11.593c0,0.356,0.153,0.661,0.356,0.915
			c0.203,0.254,0.559,0.356,0.915,0.356H13.729L13.729,62.98z"/>
	</g>
	<g id="menu_7_">
		<path style="fill:#F2F2F2;" d="M13.729,15.135c0.712,0,1.271-0.559,1.271-1.271V2.271C15,1.61,14.39,1,13.729,1H2.393
			C2.037,1,1.732,1.153,1.478,1.356C1.224,1.61,1.122,1.915,1.122,2.271v11.593c0,0.356,0.153,0.661,0.356,0.915
			s0.559,0.356,0.915,0.356H13.729L13.729,15.135z"/>
		<path style="fill:#F2F2F2;" d="M13.729,38.981c0.712,0,1.271-0.559,1.271-1.271V26.117c0-0.661-0.61-1.271-1.271-1.271H2.393
			c-0.356,0-0.661,0.153-0.915,0.356c-0.254,0.254-0.356,0.559-0.356,0.915V37.71c0,0.356,0.153,0.661,0.356,0.915
			c0.254,0.254,0.559,0.356,0.915,0.356H13.729L13.729,38.981z"/>
		<path style="fill:#F2F2F2;" d="M13.729,62.98c0.712,0,1.271-0.559,1.271-1.271V50.116c0-0.661-0.61-1.271-1.271-1.271H2.393
			c-0.356,0-0.661,0.153-0.915,0.356c-0.254,0.254-0.356,0.559-0.356,0.915v11.593c0,0.356,0.153,0.661,0.356,0.915
			c0.203,0.254,0.559,0.356,0.915,0.356H13.729L13.729,62.98z"/>
	</g>
</g>
<g id="Layer_1">
</g>
</svg>
