<?xml version="1.0" encoding="iso-8859-1"?>
<!-- Generator: Adobe Illustrator 18.1.1, SVG Export Plug-In . SVG Version: 6.00 Build 0)  -->
<svg version="1.1" xmlns="http://www.w3.org/2000/svg" xmlns:xlink="http://www.w3.org/1999/xlink" x="0px" y="0px"
	 viewBox="0 0 64 64" style="enable-background:new 0 0 64 64;" xml:space="preserve">
<g id="print">
	<g>
		<g>
			<rect x="20.336" y="47.552" style="fill:#F2F2F2;" width="19.44" height="3.889"/>
			<path style="fill:#F2F2F2;" d="M16.449,4.783h31.104v7.776h3.888V4.783c0-2.145-1.739-3.888-3.888-3.888H16.449
				c-2.147,0-3.888,1.743-3.888,3.888v7.776h3.888V4.783z"/>
			<rect x="20.336" y="39.776" style="fill:#F2F2F2;" width="23.327" height="3.888"/>
			<path style="fill:#F2F2F2;" d="M59.217,16.447H4.784c-2.147,0-3.888,1.743-3.888,3.888v23.329c0,2.149,1.741,3.888,3.888,3.888
				h7.776v11.665c0,2.149,1.741,3.888,3.888,3.888h31.104c2.149,0,3.888-1.739,3.888-3.888V47.552h7.777
				c2.149,0,3.888-1.739,3.888-3.888V20.335C63.105,18.19,61.366,16.447,59.217,16.447z M47.553,59.217H16.449V35.888h31.104
				L47.553,59.217L47.553,59.217z M55.328,28.112c-2.149,0-3.888-1.739-3.888-3.888c0-2.145,1.739-3.888,3.888-3.888
				c2.15,0,3.889,1.743,3.889,3.888C59.217,26.373,57.477,28.112,55.328,28.112z"/>
		</g>
	</g>
</g>
<g id="Layer_1">
</g>
</svg>
