<svg xmlns="http://www.w3.org/2000/svg" viewBox="0 0 64 64"><path d="M58.418 1.006H5.59C3.06 1.006 1.007 3 1.007 5.448v53.105c0 2.456 2.054 4.442 4.586 4.442H58.42c2.53 0 4.575-1.986 4.575-4.442V5.448c0-2.448-2.045-4.442-4.576-4.442zM19.8 52.9h-9.366V24.906H19.8V52.9zm-4.682-31.815h-.062c-3.14 0-5.178-2.15-5.178-4.835 0-2.743 2.098-4.835 5.303-4.835s5.175 2.092 5.238 4.835c0 2.686-2.033 4.835-5.298 4.835zM53.564 52.9H44.2V37.925c0-3.77-1.356-6.334-4.742-6.334-2.59 0-4.13 1.736-4.8 3.408-.25.598-.317 1.43-.317 2.27V52.9h-9.353s.12-25.364 0-27.994h9.356v3.973c1.244-1.91 3.466-4.63 8.44-4.63 6.165 0 10.785 4 10.785 12.6V52.9zm-19.28-23.934l.056-.087v.084h-.055z" fill="#F2F2F2"/></svg>