<?xml version="1.0" encoding="iso-8859-1"?>
<!-- Generator: Adobe Illustrator 18.1.1, SVG Export Plug-In . SVG Version: 6.00 Build 0)  -->
<svg version="1.1" xmlns="http://www.w3.org/2000/svg" xmlns:xlink="http://www.w3.org/1999/xlink" x="0px" y="0px"
	 viewBox="0 0 64 64" style="enable-background:new 0 0 64 64;" xml:space="preserve">
<g id="delete">
	<g>
		<g>
			<path style="fill:#F2F2F2;" d="M50.673,9.247h-4.064c-0.58,0-1.049-0.469-1.049-1.049V6.363c0-2.892-2.351-5.244-5.244-5.244
				H24.059c-2.892,0-5.244,2.353-5.244,5.244v1.835c0,0.58-0.47,1.049-1.049,1.049h-4.064c-2.896,0-5.244,2.347-5.244,5.244v4.982
				c0,0.58,0.47,1.049,1.049,1.049h45.362c0.581,0,1.049-0.469,1.049-1.049v-4.982C55.917,11.595,53.571,9.247,50.673,9.247z
				 M41.365,8.198c0,0.58-0.468,1.049-1.049,1.049H24.059c-0.579,0-1.049-0.469-1.049-1.049V6.363c0-0.579,0.471-1.049,1.049-1.049
				h16.257c0.58,0,1.049,0.47,1.049,1.049V8.198z"/>
			<path style="fill:#F2F2F2;" d="M50.413,23.144H13.966c-0.58,0-1.049,0.469-1.049,1.049v33.563c0,2.897,2.348,5.244,5.244,5.244
				h28.056c2.897,0,5.244-2.347,5.244-5.244V24.193C51.462,23.613,50.993,23.144,50.413,23.144z M23.667,55.658
				c0,1.158-0.939,2.098-2.098,2.098c-1.158,0-2.098-0.94-2.098-2.098V29.7c0-1.158,0.94-2.098,2.098-2.098
				c1.159,0,2.098,0.94,2.098,2.098V55.658z M34.286,55.658c0,1.158-0.939,2.098-2.098,2.098c-1.158,0-2.098-0.94-2.098-2.098V29.7
				c0-1.158,0.94-2.098,2.098-2.098c1.159,0,2.098,0.94,2.098,2.098V55.658z M44.905,55.658c0,1.158-0.94,2.098-2.098,2.098
				s-2.098-0.94-2.098-2.098V29.7c0-1.158,0.94-2.098,2.098-2.098s2.098,0.94,2.098,2.098V55.658z"/>
		</g>
	</g>
</g>
<g id="Layer_1">
</g>
</svg>
