<?xml version="1.0" encoding="iso-8859-1"?>
<!-- Generator: Adobe Illustrator 18.1.1, SVG Export Plug-In . SVG Version: 6.00 Build 0)  -->
<svg version="1.1" xmlns="http://www.w3.org/2000/svg" xmlns:xlink="http://www.w3.org/1999/xlink" x="0px" y="0px"
	 viewBox="0 0 64 64" style="enable-background:new 0 0 64 64;" xml:space="preserve">
<g id="youtube">
	<path id="YouTube" style="fill:#F2F2F2;" d="M49.335,45.859h-3.322v-1.92c0-0.83,0.675-1.557,1.557-1.557h0.208
		c0.882,0,1.557,0.675,1.557,1.557V45.859z M36.983,41.707c-0.83,0-1.505,0.571-1.505,1.246v9.342c0,0.675,0.675,1.246,1.505,1.246
		c0.83,0,1.505-0.571,1.505-1.246v-9.342C38.488,42.278,37.813,41.707,36.983,41.707z M57.068,36.516v17.75
		c0,4.256-3.685,7.733-8.2,7.733H15.132c-4.515,0-8.2-3.477-8.2-7.733v-17.75c0-4.256,3.685-7.733,8.2-7.733h33.736
		C53.383,28.731,57.068,32.261,57.068,36.516z M17.364,56.187V37.503h4.204v-2.751H10.409v2.699h3.477v18.736L17.364,56.187
		L17.364,56.187z M29.924,40.253h-3.477v9.965c0,1.453,0.104,2.18,0,2.439c-0.26,0.779-1.557,1.609-2.076,0.104
		c-0.104-0.26,0-1.09,0-2.439V40.253h-3.477v9.913c0,1.505-0.052,2.647,0,3.166c0.104,0.882,0.052,1.972,0.882,2.595
		c1.557,1.142,4.567-0.156,5.346-1.765v2.076h2.803V40.253L29.924,40.253z M41.083,51.724v-8.304c0-3.166-2.387-5.086-5.605-2.491
		v-6.176H32v21.331l2.855-0.052l0.26-1.349C38.799,58.056,41.083,55.72,41.083,51.724z M51.982,50.582h-2.595
		c0,0.104,0,0.208,0,0.363v1.453c0,0.779-0.623,1.401-1.453,1.401h-0.519c-0.779,0-1.453-0.623-1.453-1.401v-0.156v-1.609v-2.076
		h5.969v-2.232c0-1.661-0.052-3.27-0.156-4.256c-0.415-2.958-4.619-3.477-6.747-1.92c-0.675,0.467-1.194,1.09-1.453,1.972
		c-0.311,0.882-0.467,2.024-0.467,3.529v4.931C43.159,58.834,53.176,57.692,51.982,50.582z M38.591,23.697
		c0.156,0.415,0.467,0.779,0.83,1.038c0.363,0.26,0.83,0.415,1.453,0.415c0.519,0,0.934-0.156,1.349-0.415
		c0.363-0.26,0.727-0.675,0.986-1.246l-0.052,1.349h3.893V8.282h-3.062v12.872c0,0.675-0.571,1.246-1.298,1.246
		c-0.675,0-1.298-0.571-1.298-1.246V8.282h-3.218v11.159c0,1.401,0,2.387,0.052,2.855C38.28,22.815,38.384,23.23,38.591,23.697z
		 M26.81,14.355c0-1.609,0.156-2.803,0.415-3.737c0.26-0.882,0.727-1.609,1.453-2.128c0.675-0.519,1.557-0.83,2.647-0.83
		c0.882,0,1.661,0.156,2.336,0.519c0.623,0.363,1.142,0.779,1.505,1.349c0.363,0.571,0.571,1.142,0.727,1.713
		c0.156,0.571,0.208,1.505,0.208,2.699v4.204c0,1.557-0.052,2.647-0.156,3.374c-0.104,0.727-0.363,1.401-0.779,2.024
		c-0.363,0.623-0.882,1.09-1.505,1.349c-0.623,0.311-1.298,0.467-2.128,0.467c-0.882,0-1.609-0.104-2.232-0.363
		s-1.09-0.623-1.453-1.142c-0.363-0.519-0.571-1.142-0.727-1.868c-0.156-0.727-0.208-1.817-0.208-3.27L26.81,14.355L26.81,14.355z
		 M29.82,20.894c0,0.934,0.675,1.713,1.557,1.713c0.83,0,1.557-0.779,1.557-1.713v-8.823c0-0.934-0.675-1.713-1.557-1.713
		c-0.83,0-1.557,0.779-1.557,1.713V20.894z M19.077,25.358h3.685V12.694l4.36-10.847h-3.996l-2.284,8.045l-2.336-8.097h-3.996
		l4.619,10.899L19.077,25.358z"/>
</g>
<g id="Layer_1">
</g>
</svg>
