<?xml version="1.0" encoding="iso-8859-1"?>
<!-- Generator: Adobe Illustrator 18.1.1, SVG Export Plug-In . SVG Version: 6.00 Build 0)  -->
<svg version="1.1" xmlns="http://www.w3.org/2000/svg" xmlns:xlink="http://www.w3.org/1999/xlink" x="0px" y="0px"
	 viewBox="0 0 64 64" style="enable-background:new 0 0 64 64;" xml:space="preserve">
<g id="settings">
	<g id="cog">
		<g id="settings_1_">
			<path style="fill:#F2F2F2;" d="M54.72,35.415c0-0.929,0.314-1.859,0.314-3.103c0-1.243,0-2.173-0.314-3.103l6.508-5.263
				c0.616-0.616,0.616-1.243,0.313-1.859l-6.193-10.841c-0.314-0.314-0.929-0.616-1.859-0.314l-7.739,3.103
				c-1.545-1.243-3.404-2.173-5.263-3.103L39.244,2.88C39.557,1.95,38.628,1.334,38,1.334H25.614c-0.616,0-1.545,0.616-1.545,1.243
				l-1.243,8.366c-1.859,0.616-3.405,1.859-5.263,3.103l-7.437-3.103c-0.929-0.314-1.545,0-2.173,0.616L1.772,22.413
				c-0.314,0.314,0,1.243,0.616,1.859l6.507,4.95c0,0.929-0.314,1.859-0.314,3.103s0,2.173,0.314,3.103l-6.507,5.263
				c-0.616,0.616-0.616,1.243-0.314,1.859l6.193,10.841c0.314,0.314,0.929,0.616,1.859,0.314l7.739-3.103
				c1.545,1.243,3.405,2.173,5.263,3.103l1.243,8.052c0,0.616,0.616,1.243,1.545,1.243h12.386c0.616,0,1.545-0.616,1.545-1.243
				l1.243-8.052c1.859-0.929,3.718-1.859,5.263-3.103l7.739,3.103c0.616,0.313,1.545,0,1.859-0.616l6.193-10.841
				c0.314-0.616,0.314-1.545-0.313-1.859L54.72,35.415z M31.806,43.154c-5.879,0-10.841-4.95-10.841-10.841
				c0-5.891,4.95-10.841,10.841-10.841c5.891,0,10.841,4.95,10.841,10.841S37.697,43.154,31.806,43.154z"/>
		</g>
	</g>
</g>
<g id="Layer_1">
</g>
</svg>
