<?xml version="1.0" encoding="iso-8859-1"?>
<!-- Generator: Adobe Illustrator 18.1.1, SVG Export Plug-In . SVG Version: 6.00 Build 0)  -->
<svg version="1.1" xmlns="http://www.w3.org/2000/svg" xmlns:xlink="http://www.w3.org/1999/xlink" x="0px" y="0px"
	 viewBox="0 0 64 64" style="enable-background:new 0 0 64 64;" xml:space="preserve">
<g id="instagram">
	<g>
		<path style="fill:#F2F2F2;" d="M9.305,1.468h45.39c4.326,0,7.837,3.197,7.837,7.837v45.39c0,4.639-3.511,7.837-7.837,7.837H9.305
			c-4.326,0-7.837-3.197-7.837-7.837V9.305C1.468,4.666,4.979,1.468,9.305,1.468L9.305,1.468z M45.918,8.239
			c-1.505,0-2.758,1.254-2.758,2.759v6.583c0,1.505,1.254,2.759,2.758,2.759h6.896c1.505,0,2.759-1.254,2.759-2.759v-6.583
			c0-1.505-1.254-2.759-2.759-2.759H45.918L45.918,8.239z M55.635,27.298h-5.392c0.502,1.63,0.815,3.448,0.815,5.266
			c0,10.156-8.526,18.369-18.996,18.369s-18.996-8.213-18.996-18.369c0-1.818,0.251-3.574,0.815-5.266h-5.58v25.767
			c0,1.317,1.066,2.445,2.445,2.445h42.506c1.317,0,2.445-1.066,2.445-2.445L55.635,27.298L55.635,27.298z M32.063,19.963
			c-6.771,0-12.288,5.329-12.288,11.912s5.517,11.912,12.288,11.912s12.288-5.329,12.288-11.912
			C44.351,25.292,38.834,19.963,32.063,19.963z"/>
	</g>
</g>
<g id="Layer_1">
</g>
</svg>
