<?xml version="1.0" encoding="iso-8859-1"?>
<!-- Generator: Adobe Illustrator 18.1.1, SVG Export Plug-In . SVG Version: 6.00 Build 0)  -->
<svg version="1.1" xmlns="http://www.w3.org/2000/svg" xmlns:xlink="http://www.w3.org/1999/xlink" x="0px" y="0px"
	 viewBox="0 0 64 64" style="enable-background:new 0 0 64 64;" xml:space="preserve">
<g id="linkedin">
	<path id="LinkedIn" style="fill:#F2F2F2;" d="M62.333,38.867v22.445H49.336V40.367c0-5.249-1.9-8.848-6.599-8.848
		c-3.599,0-5.749,2.399-6.649,4.749c-0.35,0.85-0.45,2-0.45,3.149v21.895H22.642c0,0,0.2-35.443,0-39.142h12.997v5.549
		c-0.05,0.05-0.05,0.1-0.1,0.15h0.1v-0.15c1.75-2.649,4.799-6.449,11.748-6.449C55.935,21.271,62.333,26.87,62.333,38.867z
		 M8.994,3.325c-4.449,0-7.348,2.899-7.348,6.749c0,3.749,2.849,6.749,7.199,6.749h0.1c4.549,0,7.348-2.999,7.348-6.749
		C16.193,6.224,13.443,3.325,8.994,3.325z M2.396,61.313h12.997V22.171H2.396V61.313z"/>
</g>
<g id="Layer_1">
</g>
</svg>
