<svg xmlns="http://www.w3.org/2000/svg" viewBox="0 0 46.73 46.73" width="32" height="32">
    <polygon fill="#F2F2F2" points="41.676,28.968 24.629,28.968 23.628,28.968 19.822,28.968 19.822,30.562 29.092,30.562 29.092,31.259 19.822,31.259 19.822,32.7 46.73,32.7 46.73,29.222" />
    <path fill="#F2F2F2" d="M0,41.981h18.622V14.046H0V41.981z M9.704,40.581c-0.496,0-0.897-0.404-0.897-0.898c0-0.495,0.401-0.897,0.897-0.897 s0.898,0.402,0.898,0.897C10.602,40.177,10.2,40.581,9.704,40.581z M2.692,16.738H15.93l-0.001,20.61H2.692V16.738z" />
    <polygon fill="#F2F2F2" points="9.21,7.377 39.053,7.377 39.053,25.265 19.822,25.265 19.822,27.892 41.682,27.892 41.682,4.749 6.581,4.749 6.581,12.852 9.21,12.852" />
</svg>
