<svg xmlns="http://www.w3.org/2000/svg" viewBox="0 0 64 64"><path d="M62.625 25.787c0-13.488-13.714-24.412-30.62-24.412-16.92 0-30.63 10.924-30.63 24.412 0 11.7 10.355 21.492 24.173 23.858-.32 3.91-1.13 8.36-2.836 12.98 6.76-1.802 12.668-7.84 16.76-13.167 13.3-2.658 23.153-12.254 23.153-23.67zM45.135 40.82c-.412.074-.82.137-1.24.18-.443.048-.89.074-1.34.074-.394 0-.777-.03-1.165-.064 4.8-3.45 7.927-8.98 7.927-15.223 0-6.868-3.765-12.86-9.387-16.188.854-.167 1.727-.27 2.624-.27 8.13 0 14.722 7.1 14.722 15.875 0 7.81-5.242 14.296-12.14 15.612z" fill-rule="evenodd" clip-rule="evenodd" fill="#F2F2F2"/></svg>