<?xml version="1.0" encoding="iso-8859-1"?>
<!-- Generator: Adobe Illustrator 18.1.1, SVG Export Plug-In . SVG Version: 6.00 Build 0)  -->
<svg version="1.1" xmlns="http://www.w3.org/2000/svg" xmlns:xlink="http://www.w3.org/1999/xlink" x="0px" y="0px"
	 viewBox="0 0 64 64" style="enable-background:new 0 0 64 64;" xml:space="preserve">
<g id="mobile">
	<path style="fill:#F2F2F2;" d="M45.747,1.253H18.253c-2.565,0-4.652,2.087-4.652,4.652v52.189c0,2.565,2.087,4.652,4.652,4.652
		h27.494c2.565,0,4.652-2.087,4.652-4.652V5.905C50.4,3.34,48.313,1.253,45.747,1.253z M33.845,57.913
		c0,0.364-0.295,0.659-0.659,0.659h-2.372c-0.364,0-0.659-0.295-0.659-0.659v-2.108c0-0.214,0.104-0.415,0.279-0.538l1.186-0.835
		c0.228-0.16,0.531-0.16,0.759,0l1.186,0.835c0.175,0.123,0.279,0.324,0.279,0.538L33.845,57.913L33.845,57.913z M44.866,51.52
		H19.134V8.328h25.731V51.52z"/>
</g>
<g id="Layer_1">
</g>
</svg>
