<?xml version="1.0" encoding="iso-8859-1"?>
<!-- Generator: Adobe Illustrator 18.1.1, SVG Export Plug-In . SVG Version: 6.00 Build 0)  -->
<svg version="1.1" xmlns="http://www.w3.org/2000/svg" xmlns:xlink="http://www.w3.org/1999/xlink" x="0px" y="0px"
	 viewBox="0 0 64 64" style="enable-background:new 0 0 64 64;" xml:space="preserve">
<g id="share">
	<g id="share_1_">
		<g>
			<path style="fill:#F2F2F2;" d="M49.136,42.426c-2.35,0-4.516,0.796-6.255,2.13L24.999,33.821
				c0.086-0.551,0.147-1.114,0.147-1.677c0-0.575-0.061-1.138-0.147-1.689l17.882-10.734c1.738,1.334,3.892,2.13,6.255,2.13
				c5.679,0,10.281-4.602,10.281-10.281S54.815,1.288,49.136,1.288S38.854,5.89,38.854,11.569c0,0.575,0.061,1.138,0.147,1.677
				L21.119,23.992c-1.738-1.334-3.892-2.13-6.255-2.13c-5.679,0-10.281,4.602-10.281,10.282c0,5.679,4.602,10.281,10.281,10.281
				c2.362,0,4.516-0.796,6.255-2.13l17.882,10.734c-0.086,0.551-0.147,1.114-0.147,1.689C38.854,58.398,43.456,63,49.136,63
				s10.281-4.602,10.281-10.281S54.815,42.426,49.136,42.426z"/>
		</g>
	</g>
</g>
<g id="Layer_1">
</g>
</svg>
