<?xml version="1.0" encoding="iso-8859-1"?>
<!-- Generator: Adobe Illustrator 18.1.1, SVG Export Plug-In . SVG Version: 6.00 Build 0)  -->
<svg version="1.1" xmlns="http://www.w3.org/2000/svg" xmlns:xlink="http://www.w3.org/1999/xlink" x="0px" y="0px"
	 viewBox="0 0 64 64" style="enable-background:new 0 0 64 64;" xml:space="preserve">
<g id="add">
	<path style="fill:#F2F2F2;" d="M61.871,25.042H39.023V2.065c0-0.55-0.45-1-1-1H26.106c-0.55,0-1,0.45-1,1v22.977H2
		c-0.55,0-1,0.45-1,1v11.917c0,0.55,0.45,1,1,1h23.106v22.977c0,0.55,0.45,1,1,1h11.917c0.55,0,1-0.45,1-1V38.959h22.848
		c0.55,0,1-0.45,1-1V26.042C62.871,25.492,62.421,25.042,61.871,25.042z"/>
</g>
<g id="Layer_1">
</g>
</svg>
