<?xml version="1.0" encoding="iso-8859-1"?>
<!-- Generator: Adobe Illustrator 18.1.1, SVG Export Plug-In . SVG Version: 6.00 Build 0)  -->
<svg version="1.1" xmlns="http://www.w3.org/2000/svg" xmlns:xlink="http://www.w3.org/1999/xlink" x="0px" y="0px"
	 viewBox="0 0 64 64" style="enable-background:new 0 0 64 64;" xml:space="preserve">
<g id="arrow-left">
	<g id="arrow_down_4_">
		<path style="fill:#F2F2F2;" d="M2.091,32.9l30.288,30.276c0.247,0.247,0.567,0.382,0.912,0.382s0.666-0.136,0.912-0.382
			l8.357-8.357c0.247-0.247,0.382-0.58,0.382-0.913c0-0.333-0.123-0.654-0.382-0.912L28.73,39.187h32.372
			c0.345,0,0.666-0.136,0.912-0.382c0.246-0.247,0.382-0.567,0.382-0.912v-11.81c0-0.358-0.148-0.678-0.382-0.912
			c-0.234-0.234-0.555-0.382-0.912-0.382H28.731l13.819-13.819c0.481-0.481,0.481-1.331,0-1.824L34.191,0.8
			c-0.506-0.506-1.319-0.506-1.824,0L2.092,31.075C1.61,31.556,1.61,32.419,2.091,32.9z"/>
	</g>
</g>
<g id="Layer_1">
</g>
</svg>
