<svg xmlns="http://www.w3.org/2000/svg" viewBox="0 0 64 64"><path d="M62.333 38.867v22.445H49.336V40.367c0-5.25-1.9-8.848-6.6-8.848-3.598 0-5.748 2.398-6.648 4.748-.35.85-.45 2-.45 3.15V61.31H22.642s.2-35.443 0-39.142H35.64v5.55c-.05.05-.05.1-.1.15h.1v-.15c1.75-2.65 4.798-6.45 11.747-6.45 8.548 0 14.946 5.6 14.946 17.597zM8.993 3.325c-4.448 0-7.347 2.9-7.347 6.75 0 3.748 2.85 6.748 7.2 6.748h.1c4.548 0 7.347-3 7.347-6.75-.1-3.85-2.85-6.748-7.3-6.748zM2.397 61.313h12.997V22.17H2.396v39.143z" fill="#F2F2F2"/></svg>