<svg xmlns="http://www.w3.org/2000/svg" viewBox="0 0 64 64"><path d="M12.252 61.66l19.786-19.786L51.823 61.66c.188.188.376.3.6.376.602.226 1.24.113 1.73-.376l7.48-7.48c.45-.45.6-1.127.375-1.728-.075-.226-.188-.413-.376-.6L41.81 32.026 61.596 12.24c.188-.187.3-.375.376-.6.226-.6.113-1.24-.376-1.73l-7.48-7.478c-.45-.45-1.127-.6-1.728-.376-.226.075-.413.188-.6.376L31.96 22.255 12.177 2.47c-.188-.19-.376-.302-.6-.377-.602-.226-1.24-.113-1.73.376l-7.48 7.478c-.45.45-.6 1.128-.376 1.73.076.225.19.412.377.6L22.19 32.102 2.404 51.888c-.188.188-.3.376-.376.6-.226.602-.113 1.24.376 1.73l7.48 7.48c.45.45 1.127.6 1.728.375.264-.112.452-.225.64-.413z" fill="#F2F2F2"/></svg>