<svg xmlns="http://www.w3.org/2000/svg" viewBox="0 0 64 64"><path d="M63 13.03c-2.274 1.015-4.722 1.694-7.292 2.004 2.62-1.57 4.636-4.067 5.587-7.02-2.46 1.457-5.18 2.508-8.07 3.09-2.313-2.473-5.613-4.018-9.272-4.018-7.02 0-12.707 5.686-12.707 12.707 0 .99.112 1.966.334 2.892-10.557-.532-19.926-5.588-26.193-13.276-1.1 1.878-1.718 4.053-1.718 6.39 0 4.412 2.25 8.293 5.648 10.58-2.1-.087-4.067-.667-5.772-1.62v.162c0 6.156 4.388 11.298 10.198 12.46-1.063.283-2.188.444-3.35.444-.816 0-1.62-.087-2.398-.235 1.62 5.044 6.316 8.728 11.866 8.827-4.35 3.41-9.827 5.44-15.785 5.44-1.026 0-2.04-.063-3.03-.174 5.626 3.61 12.3 5.71 19.482 5.71 23.374 0 36.154-19.368 36.154-36.155l-.036-1.644c2.496-1.78 4.647-4.017 6.352-6.563z" fill="#F2F2F2"/></svg>